<svg width="312.000000pt" height="245.000000pt" viewBox="0 0 312.000000 245.000000" xmlns="http://www.w3.org/2000/svg">
  <g transform="translate(0.000000,245.000000) scale(0.100000,-0.100000)" fill="#fefefe" stroke="none">
    <path d="M0 1225 l0 -1225 1560 0 1560 0 0 1225 0 1225 -1560 0 -1560 0 0
-1225z m2241 748 l54 -28 30 -43 29 -43 4 -68 4 -69 -26 -43 c-14 -24 -41 -57
-61 -72 l-36 -28 -64 -10 -64 -10 -48 21 c-80 35 -125 93 -139 178 l-6 40 16
49 16 50 33 29 c60 57 92 71 163 73 l40 1 55 -27z m-905 -98 l89 -16 98 -45
c100 -45 184 -101 272 -181 41 -38 171 -186 189 -216 11 -18 21 -34 23 -36 1
-2 63 -5 135 -6 l133 -2 88 -26 87 -26 81 -48 80 -48 63 -66 62 -66 41 -84
c183 -373 125 -719 -136 -805 l-52 -17 -72 6 -72 5 -68 32 c-37 18 -67 36 -67
41 0 5 -5 9 -11 9 -6 0 -27 14 -46 30 -18 17 -38 30 -43 30 -6 0 -10 4 -10 9
0 5 -15 25 -32 44 -56 59 -121 136 -138 162 -9 14 -25 34 -36 44 -10 10 -37
45 -59 77 -22 31 -47 65 -55 73 -8 9 -27 34 -42 56 -15 22 -38 53 -52 69 l-24
29 -15 -6 c-8 -3 -43 -38 -77 -79 -94 -111 -115 -134 -132 -144 -8 -5 -28 -29
-44 -53 -121 -185 -381 -387 -556 -432 l-83 -21 -50 5 c-52 5 -176 44 -185 58
-3 4 -18 14 -32 22 -45 23 -113 91 -148 148 -62 102 -77 134 -105 234 l-28 99
7 126 6 125 24 94 24 93 56 112 c82 168 169 281 302 390 38 31 76 63 84 70 13
11 78 48 160 92 80 42 246 60 366 39z" />
    <path d="M1060 1355 c-25 -7 -56 -17 -70 -21 -34 -10 -134 -70 -150 -89 -7 -8
-17 -15 -21 -15 -8 0 -26 -17 -116 -116 -62 -67 -145 -216 -173 -309 -7 -22
-16 -50 -21 -63 -5 -13 -9 -45 -9 -72 l0 -49 26 -20 27 -21 46 0 c74 0 175 33
256 84 65 41 129 86 164 116 10 8 25 20 33 25 29 19 183 138 233 179 28 22 55
44 60 48 6 4 26 20 45 35 19 16 52 40 72 53 l38 25 0 23 c0 26 -5 32 -70 82
-25 19 -47 37 -50 41 -18 22 -150 66 -220 73 l-55 5 -45 -14z" />
    <path d="M2251 1240 c-24 -5 -56 -15 -72 -22 l-29 -13 0 -20 c0 -11 29 -78 64
-150 35 -71 76 -155 90 -185 15 -30 30 -62 35 -70 5 -8 30 -59 55 -113 25 -54
53 -105 60 -113 8 -7 16 -19 18 -25 l4 -12 54 -5 53 -5 31 17 c45 24 54 44 67
148 l11 93 -5 75 c-21 264 -217 445 -436 400z" />
  </g>
  <g transform="translate(0.000000,245.000000) scale(0.100000,-0.100000)" fill="#098fbf" stroke="none">
    <path d="M2116 1973 c-16 -3 -35 -11 -43 -19 -8 -8 -21 -14 -29 -14 -8 0 -33
-19 -54 -42 l-40 -41 0 -64 0 -63 10 0 c6 0 10 -7 10 -16 0 -8 13 -35 29 -58
l29 -42 40 -12 c66 -20 172 -9 172 17 0 4 16 15 34 25 l35 19 17 35 16 35 -5
64 -5 64 -21 18 c-11 10 -21 23 -21 29 0 5 -11 13 -25 16 -14 4 -25 11 -25 16
0 13 -55 40 -77 39 -10 -1 -31 -4 -47 -6z" />
    <path d="M2098 1353 l-38 -4 0 -15 c0 -8 5 -14 10 -14 6 0 10 -12 10 -28 l0
-28 21 -17 20 -18 82 21 82 22 75 -4 74 -3 4 17 3 16 -33 7 c-18 4 -37 11 -43
15 -5 4 -26 10 -47 14 l-36 7 -5 -13 -5 -13 -9 12 c-6 9 -125 38 -127 31 -1
-1 -18 -3 -38 -5z" />
    <path d="M2463 1255 l-6 -16 19 -14 c22 -17 54 -19 54 -4 0 40 -54 67 -67 34z" />
    <path d="M2540 1202 c0 -10 15 -32 33 -49 52 -50 67 -69 67 -82 0 -7 12 -33
28 -59 15 -26 32 -62 38 -82 l10 -35 -1 -137 -2 -138 11 0 c7 0 18 10 26 21 8
12 20 27 25 33 6 6 20 30 33 52 l22 42 0 39 c0 21 -4 43 -8 49 -5 5 -14 28
-21 52 -6 23 -15 42 -20 42 -4 0 -13 18 -20 40 -11 39 -40 74 -77 96 -10 6
-21 22 -25 35 -3 13 -22 41 -41 62 l-35 37 -22 0 -21 0 0 -18z" />
    <path d="M1511 1123 c-14 -6 -41 -26 -66 -50 -8 -7 -18 -13 -24 -13 -10 0 -34
-18 -88 -67 -13 -13 -28 -23 -34 -23 -5 0 -17 -8 -27 -17 -10 -10 -30 -27 -45
-38 -15 -11 -27 -25 -27 -32 0 -7 -11 -15 -25 -19 -13 -3 -27 -14 -30 -24 l-6
-19 -29 -6 c-16 -4 -53 -29 -82 -56 -29 -27 -58 -49 -65 -49 -7 0 -16 -6 -20
-14 -10 -17 -136 -86 -157 -86 -8 0 -20 -8 -25 -19 l-11 -19 -37 -7 c-21 -4
-69 -8 -107 -9 l-69 -1 -5 13 c-2 6 -12 12 -22 12 -10 0 -20 7 -24 15 -7 19
-36 20 -36 0 0 -7 7 -18 15 -22 l15 -9 3 -43 4 -43 -14 -5 c-7 -3 -13 -16 -13
-29 l0 -24 15 0 15 0 0 -25 0 -26 25 -24 c13 -14 31 -25 40 -25 l15 0 0 -20 0
-20 20 0 20 0 0 -15 c0 -8 6 -15 14 -15 7 0 39 -11 69 -25 l56 -24 89 3 c49 2
99 9 110 15 11 6 29 11 39 11 10 1 34 9 53 20 19 10 49 25 65 33 17 8 45 28
63 45 18 17 42 34 53 37 10 4 19 12 19 19 0 8 14 19 30 26 17 7 30 17 30 21 0
5 25 33 55 61 30 28 55 56 55 62 0 7 17 30 38 52 60 65 112 128 112 137 0 4 6
7 14 7 7 0 31 21 51 48 21 26 53 62 72 81 l33 33 0 22 -1 21 -39 40 c-22 22
-43 48 -46 58 -3 9 -12 17 -20 17 l-14 0 0 20 0 20 -20 0 c-11 0 -20 5 -20 10
0 11 -35 12 -59 3z" />
    <path d="M2520 475 c0 -8 7 -15 15 -15 8 0 15 7 15 15 0 8 -7 15 -15 15 -8 0
-15 -7 -15 -15z" />
    <path d="M2807 453 c-3 -21 -9 -48 -13 -60 l-6 -23 14 0 15 0 11 39 c7 21 12
48 12 60 l0 21 -14 0 -13 0 -6 -37z" />
    <path d="M2218 413 c-19 -5 -25 -33 -8 -33 6 0 10 -7 10 -15 0 -8 7 -15 15
-15 18 0 20 26 3 33 l-13 5 18 1 c9 1 17 8 17 16 0 15 -9 17 -42 8z" />
    <path d="M2288 353 c-16 -2 -28 -8 -28 -14 0 -15 43 -59 58 -59 l14 0 -5 20
c-3 11 -1 23 4 26 14 8 11 34 -3 33 -7 -1 -25 -4 -40 -6z" />
    <path d="M2736 315 c-8 -8 -23 -15 -34 -15 -18 0 -32 -18 -32 -41 0 -13 39
-11 54 4 8 6 23 19 35 27 11 8 21 20 21 27 0 18 -25 16 -44 -2z" />
    <path d="M2360 266 l0 -14 47 -16 c58 -20 73 -20 73 -1 l0 15 -27 6 c-16 3
-38 10 -51 15 -32 13 -42 11 -42 -5z" />
    <path d="M2560 225 l0 -15 30 0 30 0 0 15 0 15 -30 0 -30 0 0 -15z" />
  </g>
  <g transform="translate(0.000000,245.000000) scale(0.100000,-0.100000)" fill="#04af8b" stroke="none">
    <path d="M783 1705 c-16 -17 -17 -35 -2 -35 14 0 39 25 39 39 0 15 -23 13 -37
-4z" />
    <path d="M1670 1665 c0 -8 6 -15 14 -15 8 0 16 -7 20 -15 l5 -15 -24 0 c-14 0
-25 5 -25 10 0 6 -13 10 -30 10 -16 0 -30 -4 -30 -10 l0 -10 -411 0 -411 0 -5
20 -5 20 -27 0 c-31 0 -51 -16 -51 -41 l0 -17 -24 -6 c-24 -6 -96 -85 -96
-105 0 -6 -4 -11 -10 -11 -5 0 -12 -11 -16 -25 -3 -14 -10 -25 -14 -25 -4 0
-15 -16 -24 -35 -9 -19 -21 -35 -26 -35 -6 0 -10 -7 -10 -15 0 -8 6 -15 14
-15 8 0 21 7 30 15 8 8 22 15 30 15 l16 0 0 20 c0 18 32 60 45 60 3 0 5 -8 5
-18 l0 -19 27 -14 26 -14 4 13 c3 6 13 12 24 12 10 0 19 5 19 10 0 6 9 10 19
10 11 0 23 -4 26 -10 8 -12 132 -13 137 -1 3 8 44 15 76 12 14 -1 17 -41 2
-41 -5 0 -10 -7 -10 -15 0 -18 -2 -18 80 0 92 20 154 18 237 -7 l73 -23 0 -12
c0 -7 7 -13 15 -13 8 0 15 7 15 15 0 8 -7 15 -15 15 l-15 0 0 28 0 28 -27 11
-28 11 232 1 232 1 6 -10 c3 -5 17 -10 31 -10 l24 0 0 35 c0 19 5 35 10 35 6
0 10 -7 10 -15 0 -8 8 -24 17 -35 l17 -20 37 0 37 0 6 -16 c10 -25 7 -34 -9
-34 -8 0 -15 -7 -15 -15 0 -8 7 -15 15 -15 8 0 15 5 15 10 0 6 7 10 15 10 l15
0 0 24 c0 14 -6 31 -13 38 -7 7 -28 33 -45 57 -18 25 -58 71 -89 103 l-56 59
-12 -5 -13 -5 5 19 5 18 -31 7 c-17 4 -31 11 -31 16 0 5 -9 9 -20 9 l-20 0 0
-15z m-626 -260 c-4 -8 -12 -15 -20 -15 -8 0 -14 7 -14 15 l0 15 20 0 19 0 -5
-15z" />
    <path d="M1400 1320 c0 -23 29 -60 47 -60 18 0 16 29 -2 36 -8 4 -15 15 -15
25 l0 19 -15 0 -15 0 0 -20z" />
    <path d="M860 1305 c0 -8 7 -15 15 -15 8 0 15 7 15 15 0 8 -7 15 -15 15 -8 0
-15 -7 -15 -15z" />
  </g>
  <g transform="translate(0.000000,245.000000) scale(0.100000,-0.100000)" fill="#04ac94" stroke="none">
    <path d="M1822 1484 c-7 -7 -12 -27 -12 -44 l0 -30 -13 0 c-7 0 -17 4 -22 9
l-10 10 -287 3 c-157 2 -284 0 -282 -3 2 -3 -8 -4 -23 -1 l-26 5 29 11 28 12
-41 0 c-23 -1 -39 -4 -37 -8 3 -4 -10 -11 -28 -16 l-33 -9 -12 15 c-7 9 -13
11 -13 5 l0 -10 -38 2 c-21 1 -44 5 -50 9 l-12 7 0 -10 c0 -6 -13 -11 -30 -11
-16 0 -30 -4 -30 -10 l0 -10 -54 0 c-30 0 -58 5 -61 10 -3 6 -19 10 -36 10
-16 0 -29 -4 -29 -10 0 -5 -9 -10 -20 -10 -11 0 -20 -6 -20 -12 l-1 -13 -13
17 c-7 10 -16 15 -19 11 -4 -3 -7 3 -7 15 l0 22 -16 0 c-9 0 -23 -8 -31 -17
l-14 -18 -5 13 c-8 17 -27 15 -21 -2 l6 -15 -15 6 -14 5 0 -17 0 -16 10 6 10
6 -6 -14 c-3 -8 -13 -14 -22 -13 l-17 1 1 -17 c1 -10 -3 -16 -9 -15 -11 2 -76
-117 -77 -140 0 -14 21 -16 69 -7 l31 7 0 18 0 19 61 0 61 0 5 -20 5 -20 19 0
19 0 0 20 c0 11 6 20 13 20 6 0 22 3 35 6 l22 6 -15 -28 c-8 -16 -15 -37 -15
-46 0 -23 27 -23 35 0 3 9 34 39 70 66 l65 48 -7 11 -6 10 10 -6 c5 -3 36 7
69 23 32 17 65 30 72 30 7 0 11 4 8 9 l-6 9 20 -5 20 -5 -6 17 -7 17 21 -11
c24 -13 86 -15 78 -3 -3 5 14 13 39 19 l43 10 -3 -18 -4 -18 15 6 c8 3 14 10
14 16 0 6 3 7 6 4 4 -4 1 -13 -6 -22 l-12 -15 16 0 c9 0 16 4 16 9 0 12 39 21
46 10 3 -5 10 -6 16 -3 l11 7 -6 -11 c-4 -5 -16 -8 -26 -5 -10 3 -22 0 -25 -5
l-6 -10 22 6 21 5 -7 -11 -7 -12 14 6 15 5 -1 -18 -2 -18 17 1 c10 1 16 -1 13
-5 -5 -10 50 -42 67 -39 l13 3 -3 -17 c-2 -10 1 -18 5 -18 4 0 24 -14 43 -30
l35 -30 28 0 27 0 0 -25 0 -25 20 0 20 0 0 20 c0 10 -6 23 -14 27 l-14 8 9 23
8 22 165 0 164 0 4 10 c2 6 23 -8 46 -30 24 -22 50 -40 57 -40 l13 0 0 37 0
38 -19 26 c-10 15 -19 39 -19 53 l0 25 -19 10 c-10 6 -21 7 -25 3 -4 -3 -4 2
0 12 l7 19 -11 -7 -12 -7 6 15 6 15 -38 -6 -37 -6 8 14 9 14 -17 -14 c-15 -12
-21 -9 -18 12 0 4 -7 7 -16 7 l-18 0 15 10 15 10 -13 0 c-7 0 -11 3 -9 8 3 4
0 12 -7 18 l-12 11 -12 -13z" />
    <path d="M2093 1169 c4 -13 7 -27 7 -31 0 -5 7 -8 15 -8 8 0 15 -7 15 -15 0
-8 7 -15 15 -15 8 0 15 7 15 15 0 8 -6 15 -14 15 l-15 0 -3 27 -3 28 -19 3
-19 4 6 -23z" />
    <path d="M572 1163 l3 -18 23 -3 22 -3 0 20 0 21 -26 0 -25 0 3 -17z" />
    <path d="M662 1158 c-7 -7 -12 -22 -12 -35 l0 -23 15 0 c14 0 35 37 35 61 0
13 -24 11 -38 -3z" />
    <path d="M610 1070 l0 -20 15 0 15 0 0 20 0 20 -15 0 -15 0 0 -20z" />
    <path d="M2150 1065 c0 -8 7 -15 15 -15 8 0 15 7 15 15 0 8 -7 15 -15 15 -8 0
-15 -7 -15 -15z" />
  </g>
  <g transform="translate(0.000000,245.000000) scale(0.100000,-0.100000)" fill="#04b481" stroke="none">
    <path d="M1135 1860 c-93 -12 -228 -62 -263 -97 -7 -7 -19 -13 -26 -13 -16 0
-48 -34 -40 -43 3 -3 -2 -3 -13 -1 l-18 5 -27 -28 -27 -28 10 -15 11 -15 5 13
5 14 12 -22 11 -21 415 1 415 0 3 10 c5 13 39 13 44 0 2 -6 13 -12 25 -12 l21
-2 -3 -17 -3 -17 11 2 c7 2 20 6 30 11 10 4 21 5 24 1 3 -3 12 2 19 12 l12 17
-10 12 -10 12 -24 -10 -25 -9 5 9 c4 5 0 12 -6 15 -7 3 -3 3 10 0 l22 -5 0 9
c0 31 -195 146 -324 191 l-59 20 -86 5 c-47 2 -113 1 -146 -4z" />
    <path d="M665 1609 l-20 -20 14 -9 c18 -11 33 -4 49 21 l13 21 -10 -7 c-6 -3
-11 -1 -11 4 0 16 -13 12 -35 -10z" />
  </g>
  <g transform="translate(0.000000,245.000000) scale(0.100000,-0.100000)" fill="#04a89f" stroke="none">
    <path d="M2008 1328 c3 -18 12 -44 21 -58 16 -24 22 -80 9 -80 -4 0 -10 9 -13
21 -4 11 -9 18 -12 15 -3 -2 -17 6 -31 20 -28 25 -52 32 -52 14 l0 -11 -161 2
-162 1 -38 -25 -38 -25 6 14 c5 14 -8 19 -20 8 -19 -19 123 -154 186 -176 15
-6 27 -14 27 -19 0 -5 9 -18 20 -29 l20 -20 35 0 35 0 12 20 c7 11 21 20 30
20 l18 0 0 -25 0 -25 14 0 15 0 3 27 c4 31 20 40 39 20 l14 -14 82 -6 82 -6 6
9 c11 17 23 11 29 -15 l6 -25 15 0 c20 0 19 9 -5 65 l-20 46 -11 -7 -12 -7 7
12 c9 15 -3 53 -15 46 -5 -3 -7 0 -4 7 3 7 0 20 -5 28 l-10 15 -9 -13 -8 -14
-6 21 -5 21 9 -6 c5 -3 9 0 9 5 0 19 -34 91 -43 91 -4 0 -17 20 -28 45 -11 25
-26 45 -33 45 l-13 0 5 -32z" />
    <path d="M827 1303 c-3 -5 -2 -15 3 -23 l9 -15 11 11 11 11 -15 12 c-8 7 -17
8 -19 4z" />
    <path d="M1493 1271 l12 -15 -17 6 c-18 7 -30 0 -22 -13 l5 -9 20 10 19 11 0
-11 c0 -5 -4 -10 -10 -10 -5 0 -10 -5 -10 -12 l0 -12 13 12 c6 7 12 23 12 35
l1 23 -18 0 -17 0 12 -15z" />
    <path d="M471 1257 l17 -13 -13 -17 c-6 -9 -15 -14 -18 -10 -4 3 -7 1 -7 -6
l0 -12 -20 11 -20 11 -5 -13 c-43 -117 -52 -168 -30 -168 8 0 15 -4 15 -10 0
-5 7 -10 15 -10 8 0 15 5 15 10 0 18 22 10 27 -10 l5 -20 19 0 c11 0 19 6 19
14 0 7 7 19 15 26 l15 12 0 -20 c0 -24 4 -27 45 -36 l30 -7 18 30 17 29 -7 18
-6 17 12 -7 12 -8 14 12 15 12 -4 24 -4 23 16 13 16 13 -9 -15 c-5 -8 -10 -21
-12 -29 l-2 -13 29 27 28 27 -5 16 -6 15 11 -7 12 -7 -5 14 c-7 17 19 69 30
59 l8 -7 -7 13 -7 12 -24 -4 c-14 -3 -29 -7 -35 -11 -5 -3 -10 -1 -10 5 l0 11
-15 -15 c-8 -8 -15 -22 -15 -30 0 -9 -5 -16 -11 -16 -6 0 -9 6 -6 14 l6 14
-15 6 c-9 3 -38 6 -65 6 l-49 0 0 13 0 12 -10 -15 -10 -15 -7 10 c-5 6 -15 11
-23 13 l-15 2 16 -13z" />
    <path d="M353 1013 c-7 -2 -13 -18 -13 -34 l0 -29 14 0 c8 0 18 -9 21 -20 3
-11 13 -20 21 -20 l14 0 0 36 c0 59 -20 83 -57 67z" />
    <path d="M536 958 c-7 -36 -3 -43 19 -35 l15 6 0 31 0 30 -14 0 -13 0 -7 -32z" />
    <path d="M472 953 l3 -28 18 -3 17 -3 0 30 0 31 -21 0 -20 0 3 -27z" />
    <path d="M2210 935 c0 -8 7 -15 15 -15 8 0 15 7 15 15 0 8 -7 15 -15 15 -8 0
-15 -7 -15 -15z" />
    <path d="M1770 925 c0 -8 7 -15 15 -15 8 0 15 7 15 15 0 8 -7 15 -15 15 -8 0
-15 -7 -15 -15z" />
  </g>
  <g transform="translate(0.000000,245.000000) scale(0.100000,-0.100000)" fill="#dffefe" stroke="none">
    <path d="M2075 2003 c-27 -7 -64 -31 -102 -67 l-33 -29 -16 -50 -16 -50 5 -48
c11 -91 56 -152 141 -189 l48 -22 57 5 c92 9 143 40 187 114 l25 43 0 62 c1
71 -11 108 -48 157 l-26 33 -51 24 -51 24 -50 -1 c-27 -1 -59 -4 -70 -6z m146
-33 c56 -22 78 -43 110 -104 l21 -40 -5 -63 -5 -62 -32 -41 c-34 -43 -83 -73
-139 -85 l-33 -7 -44 12 c-198 56 -209 327 -17 396 53 18 84 17 144 -6z" />
    <path d="M1080 1879 c-52 -11 -106 -26 -120 -33 -82 -44 -147 -81 -160 -92 -8
-7 -46 -39 -85 -71 -38 -31 -74 -63 -78 -70 -5 -7 -13 -11 -18 -7 -5 3 -8 1
-7 -3 2 -5 -12 -27 -30 -49 -73 -86 -116 -153 -168 -260 l-56 -112 -24 -93
-24 -94 -7 -135 -6 -136 28 -99 c28 -100 43 -132 105 -234 35 -57 103 -125
148 -148 14 -8 29 -18 32 -22 10 -15 135 -53 191 -58 l57 -6 48 12 c27 6 60
14 74 16 14 3 51 18 83 35 31 16 57 27 57 22 0 -4 4 -2 8 3 4 6 42 36 85 68
42 32 77 63 77 69 0 6 3 9 6 6 3 -3 35 26 71 66 36 39 75 80 87 91 12 11 35
41 51 67 17 27 32 48 35 48 10 0 56 46 95 95 22 28 58 69 79 93 l39 43 24 -28
c13 -15 36 -46 51 -68 15 -22 34 -47 42 -56 8 -8 33 -42 55 -73 22 -32 49 -67
59 -77 11 -10 27 -30 36 -44 17 -26 82 -103 138 -162 17 -19 32 -37 32 -40 0
-8 27 -32 32 -28 3 3 15 -6 28 -20 13 -14 27 -25 32 -25 4 0 18 -9 30 -20 13
-10 25 -19 28 -18 3 0 25 -9 50 -22 l44 -22 82 -6 83 -5 52 17 c138 46 206
132 229 291 17 120 13 201 -14 340 -7 35 -36 107 -79 194 l-41 84 -59 63 c-33
35 -83 78 -111 96 -28 18 -54 37 -58 43 -4 5 -8 7 -8 2 0 -4 -10 -1 -23 8 -13
8 -70 28 -126 44 l-104 29 -119 0 c-65 0 -120 1 -122 3 -1 2 -11 18 -22 36
-18 30 -148 178 -189 216 -88 80 -172 136 -272 181 l-98 45 -89 16 c-112 19
-149 18 -266 -6z m342 -35 c190 -61 385 -211 531 -404 22 -30 45 -59 49 -65
l8 -9 128 -2 127 -1 90 -27 c249 -77 396 -229 479 -496 l26 -85 6 -90 7 -90
-12 -74 -12 -75 -29 -60 -29 -61 -37 -29 c-21 -16 -63 -40 -93 -53 l-56 -23
-56 0 c-85 0 -221 54 -274 110 -16 17 -34 30 -41 30 -7 0 -14 4 -16 9 -2 7
-96 115 -133 155 -6 6 -24 29 -40 51 -17 21 -36 46 -43 55 -20 23 -122 157
-177 233 l-49 67 -18 0 c-20 0 -59 -36 -133 -124 -27 -33 -65 -73 -83 -89 -18
-17 -45 -50 -60 -74 -15 -24 -30 -43 -34 -43 -4 0 -28 -26 -53 -58 -69 -86
-199 -197 -295 -252 l-85 -49 -79 -20 c-98 -26 -104 -26 -199 -1 l-77 19 -67
47 c-153 107 -238 257 -265 471 l-12 93 13 101 c21 174 135 462 206 524 6 6
30 36 54 67 206 274 561 412 833 322z" />
    <path d="M1095 1374 c-81 -18 -117 -31 -165 -57 -109 -60 -206 -146 -264 -233
-14 -21 -37 -55 -51 -74 -39 -57 -91 -171 -114 -251 l-21 -74 7 -38 6 -38 26
-20 26 -21 80 5 80 5 66 30 c91 41 210 121 371 249 212 168 290 228 336 258
l42 28 0 21 0 22 -32 30 c-124 115 -289 181 -393 158z m170 -46 c63 -21 97
-37 105 -47 3 -4 25 -22 50 -41 63 -48 70 -56 70 -76 0 -10 -3 -15 -6 -12 -3
3 -16 -4 -29 -16 -13 -11 -42 -34 -64 -51 -23 -16 -47 -35 -54 -40 -6 -6 -34
-29 -62 -51 -50 -41 -204 -160 -233 -179 -8 -5 -23 -17 -33 -25 -35 -30 -99
-75 -164 -116 -77 -48 -181 -84 -246 -84 l-36 0 -27 21 -26 20 0 39 c0 22 4
49 9 62 5 13 14 41 21 63 28 95 111 241 176 312 69 76 86 93 95 93 6 0 7 5 4
10 -3 6 0 10 8 10 8 0 20 7 27 15 16 19 116 79 150 89 14 4 45 14 70 21 l45
13 45 -5 c25 -3 72 -14 105 -25z" />
    <path d="M2220 1246 c-115 -32 -117 -13 39 -330 71 -143 137 -279 147 -301 10
-22 29 -55 42 -72 l24 -33 38 -10 c74 -20 137 10 168 80 l15 35 5 125 4 125
-16 65 c-61 236 -261 372 -466 316z m176 -24 c192 -42 308 -270 275 -540 -13
-104 -22 -124 -67 -148 l-31 -17 -44 6 c-24 3 -45 11 -47 17 -2 5 -10 17 -18
24 -7 8 -35 59 -60 113 -25 54 -50 105 -55 113 -28 49 -90 187 -86 194 1 1 -4
11 -12 20 -19 22 -91 166 -91 180 0 14 44 34 101 46 45 9 64 8 135 -8z" />
  </g>
  <g transform="translate(0.000000,245.000000) scale(0.100000,-0.100000)" fill="#04a3aa" stroke="none">
    <path d="M2030 1330 c0 -18 30 -70 40 -70 6 0 10 -6 10 -14 0 -7 7 -20 17 -27
l16 -14 -7 30 c-4 17 -15 39 -25 50 -10 11 -21 28 -24 38 -7 18 -27 24 -27 7z" />
    <path d="M1550 1150 c0 -11 5 -20 11 -20 13 0 109 -96 109 -109 0 -5 9 -13 20
-16 11 -3 20 -13 20 -20 0 -8 9 -19 20 -25 11 -6 20 -18 20 -27 l0 -15 20 5
c11 3 18 1 15 -3 -5 -9 11 -32 48 -72 9 -10 17 -22 17 -28 0 -5 7 -13 15 -18
16 -8 51 -63 61 -94 4 -10 13 -18 21 -18 l15 0 -6 25 -6 25 15 0 c18 0 20 26
3 33 -7 3 -3 6 10 6 12 1 22 6 22 12 l0 11 40 -6 c22 -3 58 -9 80 -12 l40 -6
0 11 c0 6 13 11 29 11 l29 0 6 15 6 16 20 -11 20 -11 -15 -15 c-19 -20 -19
-44 0 -44 l15 0 6 25 c3 14 11 25 16 25 l10 0 -6 23 c-8 35 -57 118 -65 113
-4 -3 -7 5 -7 17 1 12 -4 21 -9 20 -6 -1 -11 10 -10 25 l0 27 -11 -2 c-7 -1
-11 3 -10 10 0 7 -2 13 -6 15 -5 1 -8 -1 -9 -5 0 -5 -8 -16 -16 -26 l-16 -17
-36 6 c-20 4 -45 8 -56 9 -22 2 -51 12 -76 25 l-16 8 -14 -9 c-8 -5 -49 -9
-91 -9 l-78 0 0 -17 -1 -18 -14 19 c-8 10 -12 22 -10 27 3 4 -7 10 -23 14 -15
3 -53 26 -83 51 -29 25 -62 50 -71 55 l-18 10 0 -21z m292 -142 c-15 -15 -62
-19 -62 -5 l0 9 25 -4 c14 -3 25 -1 25 3 0 5 5 9 12 9 l12 0 -12 -12z" />
    <path d="M575 1073 c13 -62 16 -73 25 -73 6 0 10 7 10 16 l0 15 -10 -6 -10 -6
3 18 c1 10 7 25 11 33 5 8 6 12 1 8 -4 -4 -14 -3 -21 3 l-12 10 3 -18z" />
    <path d="M414 1062 c2 -4 1 -14 -5 -22 l-9 -15 0 16 0 17 -17 -2 c-22 -1 -33
-15 -33 -40 l0 -18 15 6 15 5 10 -19 c5 -10 10 -31 10 -47 l0 -28 -10 15 c-5
8 -10 29 -10 45 l-1 30 -10 -23 c-5 -13 -13 -21 -18 -18 -11 7 -21 -53 -21
-136 0 -75 6 -98 26 -98 l14 0 1 33 c0 17 3 26 6 20 11 -29 55 -7 67 33 3 10
3 0 1 -22 l-5 -42 16 -6 c27 -10 31 -7 38 25 3 17 17 54 32 82 14 28 23 59 21
69 -3 10 0 21 5 25 l11 6 -8 -14 -8 -14 16 15 c9 8 18 26 19 39 l3 25 -25 6
-25 6 -3 22 -4 23 -16 -3 c-9 -2 -21 -13 -27 -26 -11 -24 -25 -30 -25 -9 0 7
-9 20 -20 30 -21 18 -35 23 -26 9z" />
    <path d="M2304 748 c3 -13 6 -26 6 -30 0 -5 7 -8 15 -8 17 0 18 4 9 38 -4 12
-13 22 -21 22 l-15 0 6 -22z" />
    <path d="M2060 679 l0 -20 17 3 c10 2 19 11 21 21 l3 17 -20 0 -21 0 0 -21z" />
  </g>
  <g transform="translate(0.000000,245.000000) scale(0.100000,-0.100000)" fill="#059ac4" stroke="none">
    <path d="M2080 1915 l-12 -15 20 0 c11 0 22 7 26 15 l5 15 -13 0 c-7 0 -19 -7
-26 -15z" />
    <path d="M2801 744 c-12 -19 -21 -37 -21 -40 0 -12 -28 -33 -35 -26 -5 4 -5 1
-1 -6 l7 -12 -14 -15 c-8 -8 -17 -12 -19 -9 -3 2 -8 -15 -11 -38 -3 -23 -11
-44 -16 -46 -6 -2 -11 -10 -11 -17 0 -8 -9 -17 -20 -20 -11 -3 -20 -11 -20
-16 0 -5 -13 -9 -28 -9 -16 0 -32 -3 -36 -7 -10 -10 -46 -11 -46 -1 0 4 -18
11 -40 14 l-39 6 -6 19 -6 19 -20 0 -19 0 0 -17 0 -18 -37 -2 c-20 -1 -39 -6
-42 -12 -3 -5 -19 -13 -34 -16 l-27 -7 0 16 0 16 31 0 30 0 -3 16 c-2 9 -11
22 -20 28 l-18 11 -19 -12 -19 -12 -36 6 -36 6 0 -15 c0 -8 5 -19 11 -25 l11
-11 -11 -6 -11 -7 0 16 c0 8 -6 18 -14 21 l-14 5 6 21 5 21 -26 -5 -27 -5 0
17 0 18 -22 6 c-34 9 -38 8 -38 -9 0 -8 5 -15 10 -15 6 0 10 -6 10 -14 0 -8
14 -26 30 -39 17 -14 30 -30 30 -36 0 -6 9 -15 20 -21 11 -6 20 -16 20 -23 0
-14 52 -57 69 -57 5 0 11 -10 13 -22 l3 -23 17 1 c10 1 15 -2 12 -7 -3 -5 2
-9 10 -9 9 0 16 4 16 9 0 5 7 11 14 14 l15 6 -6 -15 -5 -14 21 0 21 0 0 19 c0
10 7 22 16 25 25 10 29 7 9 -8 l-18 -13 6 -16 c3 -9 21 -19 39 -22 l33 -6 30
15 c17 9 38 16 48 16 l17 0 0 15 c0 8 7 15 15 15 l14 0 -6 -16 -6 -17 18 -13
19 -14 -27 0 -27 0 0 -15 0 -15 50 0 50 0 0 20 0 20 -20 0 c-11 0 -20 5 -20
10 0 6 15 10 34 10 19 0 38 5 41 10 8 13 25 13 25 -1 0 -16 29 -41 40 -34 5 3
10 1 10 -4 0 -6 4 -11 10 -11 11 0 9 28 -3 48 l-8 12 31 0 32 0 -6 24 -6 24
16 6 16 6 -5 20 -5 20 9 -6 9 -5 0 31 0 31 -14 5 c-8 3 -17 19 -20 36 l-6 30
-20 -5 -20 -5 0 13 c0 7 -2 20 -5 27 -3 8 3 23 14 34 25 27 47 71 56 112 9 41
2 41 -24 -4z m-61 -230 c0 -8 -4 -14 -9 -14 -9 0 -21 24 -21 42 l0 10 15 -12
c8 -7 15 -19 15 -26z" />
    <path d="M2344 585 c-12 -64 24 -92 49 -38 l12 26 -13 5 c-6 2 -12 12 -12 23
l0 19 -15 0 -14 0 -7 -35z" />
    <path d="M434 595 c-4 -8 -12 -15 -19 -15 -8 0 -16 -8 -19 -18 l-6 -18 20 -39
c11 -22 20 -45 20 -52 0 -7 4 -13 9 -13 5 0 14 -13 21 -30 11 -27 21 -35 42
-31 5 0 7 -5 5 -12 -1 -6 4 -11 10 -10 7 2 12 -2 10 -8 -1 -6 6 -13 15 -14
l17 -3 -9 21 c-4 12 -12 21 -17 20 -7 -1 -12 20 -16 73 l-1 22 -15 -6 -16 -6
12 16 c7 8 10 18 6 22 -4 3 -7 26 -8 49 l-1 42 -15 0 c-8 1 -13 6 -11 13 3 17
-28 15 -34 -3z" />
    <path d="M2320 285 c0 -8 7 -15 15 -15 8 0 15 7 15 15 0 8 -7 15 -15 15 -8 0
-15 -7 -15 -15z" />
  </g>
  <g transform="translate(0.000000,245.000000) scale(0.100000,-0.100000)" fill="#059fb3" stroke="none">
    <path d="M2033 1332 c10 -10 17 -24 17 -30 0 -6 8 -17 19 -24 10 -7 18 -15 18
-18 0 -16 16 -50 24 -50 14 0 11 30 -6 47 -8 8 -13 19 -10 24 4 5 2 9 -3 9 -6
0 -15 14 -21 30 l-10 30 -22 0 -22 0 16 -18z" />
    <path d="M1540 1141 l0 -19 30 -14 c17 -7 30 -18 30 -25 0 -7 9 -17 20 -23 11
-6 20 -17 20 -24 0 -7 12 -25 28 -39 15 -15 38 -38 52 -52 13 -14 30 -25 36
-25 l12 0 -5 20 c-3 11 -14 25 -24 31 -11 5 -19 16 -19 24 0 7 -9 17 -20 20
-11 3 -20 11 -20 16 0 14 -120 129 -135 129 -3 0 -5 -9 -5 -19z" />
    <path d="M361 812 l-1 -73 -12 7 -11 7 6 -62 c4 -34 10 -73 13 -86 l6 -25 19
0 c10 0 19 5 19 11 0 5 4 7 10 4 14 -8 54 -16 47 -8 -3 3 0 12 8 20 18 17 20
53 4 53 l-11 0 11 14 c6 7 14 34 18 61 l6 47 -19 -10 -19 -10 3 38 4 38 -11 6
-10 7 -11 -21 c-6 -11 -8 -20 -5 -20 4 0 -1 -7 -10 -17 l-17 -16 -9 14 c-5 8
-8 26 -6 41 2 15 0 25 -4 22 -4 -2 -10 4 -12 13 -3 10 -5 -15 -6 -55z" />
    <path d="M2132 868 c3 -7 12 -14 21 -16 l17 -3 -6 15 c-7 19 -38 22 -32 4z" />
    <path d="M488 864 c-5 -4 -8 -16 -8 -26 l0 -19 10 6 10 6 -6 -15 c-3 -9 -2
-16 4 -16 5 0 13 7 16 16 9 23 7 36 -3 29 -5 -3 -11 2 -13 11 -2 9 -6 12 -10
8z" />
    <path d="M1837 863 c-8 -13 39 -88 54 -88 7 0 15 8 17 19 l4 18 -13 -7 -12 -8
7 18 6 18 -14 -12 c-17 -15 -28 -1 -15 19 13 21 11 36 -3 22 -15 -15 -32 -16
-23 -2 3 6 4 10 1 10 -3 0 -7 -3 -9 -7z" />
    <path d="M2231 840 l-32 -30 -25 0 c-13 0 -24 -5 -24 -11 l0 -11 -32 7 c-18 3
-54 9 -80 12 l-48 5 0 -12 0 -12 -25 4 -25 5 -10 -13 -11 -12 12 -8 12 -7 -8
13 -8 13 11 -7 11 -6 -10 -30 -11 -29 42 -55 41 -56 29 0 30 0 0 -13 c0 -8 7
-14 15 -14 l15 0 0 29 0 28 -12 0 c-6 0 -3 7 8 15 l19 14 57 1 c31 0 60 -4 63
-10 3 -5 14 -10 24 -10 l17 0 13 -35 12 -35 21 0 20 0 5 20 c7 27 17 25 31 -5
11 -24 42 -35 42 -15 0 17 -91 185 -99 183 -4 -1 -8 8 -8 20 -1 12 -12 29 -24
38 l-22 16 6 16 c11 29 -9 27 -42 -3z" />
    <path d="M2799 696 l-23 -65 -22 -5 c-11 -3 -21 -13 -21 -22 l0 -15 20 5 c11
2 28 -1 39 -7 l21 -12 4 13 c3 7 14 22 25 32 l20 18 -7 61 -7 61 -13 0 -13 0
-23 -64z" />
    <path d="M2678 561 c-20 -19 -24 -41 -8 -41 12 0 44 32 48 48 3 18 -20 13 -40
-7z" />
    <path d="M2830 545 l0 -35 15 0 15 0 0 35 0 35 -15 0 -15 0 0 -35z" />
    <path d="M380 554 c0 -17 22 -14 28 4 2 7 -3 12 -12 12 -9 0 -16 -7 -16 -16z" />
  </g>
  <g transform="translate(0.000000,245.000000) scale(0.100000,-0.100000)" fill="#059cbb" stroke="none">
    <path d="M2057 1324 c-8 -9 15 -44 29 -44 l12 0 -11 25 c-12 25 -19 30 -30 19z" />
    <path d="M2090 1254 c0 -8 2 -14 4 -14 2 0 11 -2 19 -5 l14 -6 0 15 c0 8 -9
17 -19 19 l-18 5 0 -14z" />
    <path d="M1585 1110 c-3 -5 -2 -10 4 -10 5 0 11 -9 13 -20 2 -12 6 -19 10 -18
4 2 13 -6 21 -16 l14 -19 7 11 7 11 -26 17 c-14 9 -25 22 -25 30 0 17 -17 27
-25 14z" />
    <path d="M1678 987 c12 -13 19 -27 15 -30 -3 -4 1 -7 10 -7 10 0 17 -4 17 -10
0 -5 8 -10 18 -10 l17 0 -25 20 c-14 10 -25 24 -25 31 0 6 -11 16 -25 21 l-24
9 22 -24z" />
    <path d="M2815 763 c-5 -10 -9 -22 -9 -28 -2 -24 -29 -74 -37 -69 -5 3 -9 -1
-9 -9 0 -8 -7 -20 -15 -27 l-16 -13 11 -7 12 -7 -17 -6 -16 -7 6 9 c3 5 1 12
-4 16 -6 3 -17 -8 -26 -25 l-16 -31 11 -14 12 -14 -20 4 -20 3 -23 -24 -22
-24 -33 0 c-18 0 -36 -5 -39 -10 -8 -13 21 -24 37 -14 7 5 24 10 38 12 14 2
27 7 28 13 2 5 8 7 13 3 5 -3 9 0 9 5 0 16 29 13 46 -4 23 -22 34 -18 34 13
-1 33 -20 60 -40 55 l-15 -5 15 11 15 11 20 -25 20 -25 12 18 12 17 -6 -19 -6
-19 13 8 13 8 -7 -11 -6 -11 22 -20 c32 -31 48 -21 48 30 l0 20 -10 -6 -10 -6
0 16 0 16 10 -6 10 -6 0 47 0 46 -15 -12 -14 -12 -20 7 -20 6 21 52 c28 71 32
87 20 87 -5 0 -13 -8 -17 -17z" />
    <path d="M427 696 c-11 -28 -8 -39 8 -32 8 3 15 1 15 -4 0 -6 5 -10 10 -10 6
0 10 10 10 22 0 12 -3 18 -7 15 -3 -4 -11 1 -18 10 l-12 16 -6 -17z" />
    <path d="M1993 704 c3 -3 1 -18 -4 -32 l-10 -25 18 14 c9 8 14 9 10 3 l-7 -11
20 -18 c11 -10 20 -15 20 -11 0 12 -40 86 -47 86 -3 0 -4 -3 0 -6z" />
    <path d="M370 661 c0 -16 -3 -37 -7 -47 l-6 -17 11 7 c6 3 13 2 17 -4 3 -5 1
-10 -5 -10 l-10 0 6 -27 c4 -16 11 -32 15 -37 5 -6 9 -17 9 -25 0 -22 80 -141
95 -141 l13 0 -5 20 c-3 11 -9 18 -13 15 -4 -3 -13 9 -20 25 -7 17 -18 30 -24
30 l-11 0 15 9 c8 6 18 7 22 5 4 -3 5 2 2 11 l-6 16 -19 -6 -19 -6 0 11 c0 6
5 8 10 5 9 -5 14 7 11 27 0 4 8 6 19 5 11 -1 20 -5 20 -10 0 -4 5 -5 10 -2 14
9 12 25 -3 25 -7 0 -18 9 -24 20 l-13 19 10 6 c6 3 10 17 10 31 l0 25 -27 -21
-27 -21 -17 22 c-9 13 -16 33 -14 46 l2 23 -13 0 -14 0 0 -29z m85 -78 l-16
-15 12 -14 11 -14 -15 0 -16 0 5 -15 6 -15 -13 0 c-7 0 -10 3 -6 6 3 4 -2 14
-11 23 -10 9 -11 12 -3 6 l15 -10 -7 18 -7 18 10 -6 10 -6 10 26 10 26 10 -6
10 -6 -15 -16z" />
    <path d="M2095 660 c-4 -6 -10 -8 -15 -5 -4 3 -13 -2 -20 -10 l-12 -15 11 0
c6 0 11 -4 11 -10 0 -5 -6 -7 -12 -5 -7 3 -19 1 -27 -4 l-14 -9 8 -12 c4 -6
13 -9 21 -6 l13 5 -5 -14 c-7 -17 13 -55 29 -55 7 0 19 -15 27 -32 8 -17 23
-36 32 -42 l17 -10 8 8 8 8 -22 15 c-13 9 -23 19 -23 24 0 5 -15 23 -32 40
l-33 31 47 -33 c27 -18 46 -35 43 -37 -6 -6 15 -32 26 -32 4 0 11 9 14 20 l7
21 -12 14 -12 15 13 -1 c8 0 23 -4 34 -9 l20 -8 18 16 18 16 17 -18 17 -18
-30 4 -29 3 -6 -30 c-4 -16 -13 -41 -20 -55 l-13 -25 16 14 c10 7 17 19 17 26
l0 12 39 7 c22 3 41 11 43 17 2 5 18 11 36 11 l33 1 13 -18 13 -18 7 12 7 11
-15 6 c-18 7 -22 44 -5 44 l10 0 -6 23 c-4 12 -12 27 -18 32 l-10 10 8 -14 8
-14 -12 7 c-7 5 -10 15 -7 23 l6 14 -10 -6 c-5 -3 -20 11 -34 31 l-24 36 1
-43 1 -43 -11 -3 -11 -4 -13 35 -13 36 -17 0 c-10 0 -21 5 -24 10 l-6 10 -69
0 -69 0 -6 -10z m286 -90 l10 0 -12 -21 -11 -21 -10 10 -10 10 8 34 8 33 4
-22 c2 -13 8 -23 13 -23z" />
    <path d="M2434 514 c3 -9 6 -18 6 -20 0 -2 7 -4 17 -4 l16 0 -19 -22 -19 -23
28 25 28 24 -23 18 c-29 22 -42 23 -34 2z" />
    <path d="M2660 449 l0 -20 17 3 c10 2 19 11 21 21 l3 17 -20 0 -21 0 0 -21z" />
  </g>
  <g transform="translate(0.000000,245.000000) scale(0.100000,-0.100000)" fill="#c4fcfc" stroke="none">
    <path d="M2150 1990 c0 -5 12 -10 26 -10 l25 0 -6 10 c-3 6 -15 10 -26 10 -10
0 -19 -4 -19 -10z" />
    <path d="M2030 1969 c-43 -26 -45 -28 -38 -35 7 -7 88 38 88 49 0 12 -13 8
-50 -14z" />
    <path d="M2250 1963 c0 -5 16 -23 35 -42 19 -18 40 -49 47 -67 11 -32 28 -46
28 -24 0 19 -38 84 -65 113 -25 26 -45 35 -45 20z" />
    <path d="M1957 1898 c-19 -30 -31 -68 -20 -68 10 1 47 79 40 86 -3 3 -12 -5
-20 -18z" />
    <path d="M1205 1880 l-6 -10 26 0 26 0 -6 10 c-3 6 -12 10 -20 10 -8 0 -17 -4
-20 -10z" />
    <path d="M1275 1879 c-3 -4 11 -11 32 -14 75 -13 145 -36 236 -80 l92 -44 90
-73 c50 -40 97 -81 107 -93 l16 -20 8 8 8 8 -53 50 c-152 142 -296 221 -464
254 l-67 13 -5 -9z" />
    <path d="M1035 1856 c-168 -55 -352 -186 -456 -324 -24 -31 -48 -61 -54 -67
-58 -50 -180 -338 -199 -467 l-7 -48 9 0 c5 0 13 21 17 48 17 113 95 304 166
409 16 23 29 46 29 52 0 6 4 11 8 11 4 0 24 21 45 48 41 53 124 142 132 142 2
0 31 19 62 43 109 82 275 157 347 157 14 0 26 5 26 10 0 16 -50 11 -125 -14z" />
    <path d="M1923 1794 c-3 -8 -1 -20 6 -27 l11 -11 0 27 c0 30 -7 35 -17 11z" />
    <path d="M2331 1703 c-8 -20 -26 -47 -42 -61 -29 -24 -37 -42 -20 -42 16 0 78
83 85 113 9 40 -8 33 -23 -10z" />
    <path d="M1950 1672 c0 -5 7 -16 16 -23 l16 -13 -3 18 c-4 20 -29 35 -29 18z" />
    <path d="M2019 1601 c45 -35 151 -54 166 -31 l6 10 -42 0 c-47 0 -119 19 -119
32 0 4 -8 8 -17 8 l-18 0 24 -19z" />
    <path d="M1870 1542 c0 -6 30 -49 68 -96 l67 -85 108 -1 108 0 -7 11 -7 11
-88 -4 -89 -5 -13 11 c-7 6 -32 36 -55 66 -48 64 -92 109 -92 92z" />
    <path d="M1050 1373 c-83 -16 -247 -118 -313 -195 -21 -23 -44 -50 -51 -58
-31 -34 -96 -134 -96 -147 0 -7 -4 -13 -9 -13 -10 0 -64 -125 -87 -199 -50
-164 23 -232 200 -186 61 16 196 82 196 95 0 4 10 11 23 14 27 8 72 44 64 53
-4 3 -38 -15 -77 -41 -38 -26 -100 -61 -137 -78 l-67 -30 -70 -5 -71 -5 -26
21 -27 21 -4 32 -5 32 20 70 c21 77 74 191 112 246 14 19 37 53 51 74 94 141
307 285 421 286 12 0 25 5 28 10 l6 10 -28 -1 c-15 -1 -39 -4 -53 -6z" />
    <path d="M1144 1372 c4 -7 19 -12 34 -12 83 0 198 -60 300 -154 44 -41 43 -45
-45 -106 l-78 -53 14 -5 c8 -3 20 3 26 12 7 9 17 16 22 16 6 0 22 11 37 25 15
14 31 25 37 25 5 0 9 4 9 9 0 5 9 11 20 14 34 9 23 33 -42 92 l-63 56 -80 40
-80 40 -59 6 -59 6 7 -11z" />
    <path d="M2260 1361 c0 -6 8 -11 18 -11 9 0 28 -3 42 -6 l25 -7 -10 11 c-6 7
-25 15 -43 18 l-32 7 0 -12z" />
    <path d="M2350 1341 c0 -5 12 -12 28 -16 43 -10 145 -58 166 -77 11 -10 23
-18 27 -18 6 0 65 -58 145 -144 6 -6 31 -53 57 -103 l46 -93 18 -80 c10 -44
21 -80 25 -80 14 0 9 31 -18 119 -75 247 -221 409 -433 482 -63 22 -61 22 -61
10z" />
    <path d="M2228 1253 c-10 -2 -18 -9 -18 -14 l0 -9 28 6 c15 4 31 11 37 15 l9
9 -19 -1 c-11 -1 -28 -3 -37 -6z" />
    <path d="M2356 1251 c5 -5 21 -13 37 -16 l27 -7 0 10 c0 10 -32 22 -59 22
l-15 0 10 -9z" />
    <path d="M2148 1228 l-28 -10 0 -18 c0 -24 31 -90 42 -90 4 0 8 -7 8 -15 0 -8
5 -15 11 -15 12 0 13 -2 -21 64 l-25 48 17 11 c9 7 25 17 35 24 l18 12 -15 0
c-8 0 -27 -5 -42 -11z" />
    <path d="M2478 1202 c59 -43 105 -88 134 -134 33 -51 51 -52 24 -1 -18 36 -85
113 -97 113 -5 0 -18 9 -29 20 -11 11 -28 20 -37 20 l-18 -1 23 -17z" />
    <path d="M2190 1062 c0 -12 206 -448 236 -499 14 -24 38 -50 54 -58 l29 -15
51 0 50 0 36 33 35 32 9 40 c6 22 13 86 16 143 l7 102 -11 0 -12 0 0 -67 c-2
-209 -59 -294 -175 -262 l-33 9 -24 33 c-13 17 -32 50 -43 72 -125 270 -225
464 -225 437z" />
    <path d="M1319 1014 l-13 -16 18 3 c11 2 21 10 24 17 5 17 -13 15 -29 -4z" />
    <path d="M2656 988 c4 -13 13 -42 19 -65 12 -48 25 -66 25 -36 0 33 -30 123
-41 123 l-10 0 7 -22z" />
    <path d="M1226 943 l-59 -47 13 -4 c8 -3 21 5 31 17 9 11 22 21 28 21 6 0 16
9 23 20 7 11 18 20 25 20 7 0 13 5 13 10 0 18 -14 11 -74 -37z" />
    <path d="M317 923 c-4 -3 -7 -46 -7 -94 l0 -88 10 -6 10 -6 0 100 c0 101 -1
107 -13 94z" />
    <path d="M1730 906 c0 -8 -6 -16 -12 -19 -7 -2 -10 -8 -6 -12 4 -4 14 0 23 9
25 24 23 25 125 -111 51 -69 96 -121 98 -114 4 13 -155 231 -169 231 -5 0 -9
7 -9 15 l0 15 -25 0 -25 0 0 -14z" />
    <path d="M1110 850 l-35 -29 17 -1 c9 0 21 6 25 13 4 8 16 16 26 20 17 6 24
27 10 27 -5 0 -24 -14 -43 -30z" />
    <path d="M1657 832 c-10 -10 -17 -23 -17 -28 0 -5 -14 -20 -30 -33 -17 -13
-30 -29 -30 -37 0 -8 -6 -14 -13 -14 -18 0 -50 -36 -45 -50 l3 -11 42 43 c69
72 122 133 123 141 0 13 -16 7 -33 -11z" />
    <path d="M1039 794 l-13 -16 18 3 c11 2 21 10 24 17 5 17 -13 15 -29 -4z" />
    <path d="M2860 615 l0 -106 10 6 10 6 0 94 0 94 -10 6 -10 6 0 -106z" />
    <path d="M335 623 c3 -16 11 -32 17 -38 l11 -10 -7 25 c-3 14 -6 31 -6 38 0 6
-5 12 -11 12 l-11 0 7 -27z" />
    <path d="M1468 616 c-30 -37 -36 -59 -15 -50 11 4 57 67 57 79 0 14 -18 2 -42
-29z" />
    <path d="M1970 630 c0 -5 8 -18 18 -28 9 -10 30 -36 47 -57 16 -22 34 -45 40
-51 37 -40 131 -148 133 -155 5 -12 32 -12 32 0 0 5 -25 31 -55 59 -30 28 -55
55 -55 61 0 5 -11 18 -25 29 -14 11 -25 25 -25 30 0 6 -11 19 -25 30 -14 11
-25 25 -25 31 0 6 -4 11 -8 11 -5 0 -14 11 -20 25 -11 25 -32 34 -32 15z" />
    <path d="M360 542 c0 -12 51 -103 88 -156 49 -71 122 -135 122 -108 0 12 -34
42 -48 42 -6 0 -13 8 -16 18 -3 9 -18 31 -34 47 -15 17 -43 60 -62 97 -31 60
-50 83 -50 60z" />
    <path d="M1387 523 c-4 -3 -7 -13 -7 -21 l0 -14 15 12 c8 7 15 16 15 21 0 11
-14 12 -23 2z" />
    <path d="M2850 480 c0 -53 -65 -186 -100 -206 -53 -31 -118 -57 -152 -61 -44
-6 -52 -23 -10 -23 38 1 131 41 176 76 l37 29 29 61 c16 33 32 79 36 102 l7
42 -12 0 c-6 0 -11 -9 -11 -20z" />
    <path d="M1330 455 c-13 -14 -20 -28 -17 -32 8 -7 57 35 57 49 0 15 -16 8 -40
-17z" />
    <path d="M1232 365 c-11 -14 -24 -25 -29 -25 -6 0 -22 -11 -36 -24 -15 -14
-36 -27 -47 -31 -18 -6 -29 -25 -14 -25 13 0 93 53 134 89 l45 40 -17 1 c-9 0
-25 -11 -36 -25z" />
    <path d="M2275 291 c37 -36 105 -69 105 -51 0 6 -6 10 -14 10 -8 0 -16 3 -18
8 -5 12 -66 52 -80 52 l-12 0 19 -19z" />
    <path d="M604 241 c6 -9 58 -35 94 -46 43 -13 21 10 -31 33 -56 24 -71 27 -63
13z" />
    <path d="M1018 233 c-21 -9 -38 -20 -38 -25 l0 -9 23 7 c29 9 77 33 77 39 0 8
-24 4 -62 -12z" />
    <path d="M2405 223 c13 -13 72 -33 96 -33 34 0 20 17 -18 23 -21 3 -49 9 -63
13 l-25 7 10 -10z" />
    <path d="M785 180 c3 -5 26 -10 50 -10 24 0 47 5 50 10 l6 10 -56 0 -56 0 6
-10z" />
  </g>
  <g transform="translate(0.000000,245.000000) scale(0.100000,-0.100000)" fill="#1491be" stroke="none">
    <path d="M2138 1983 c-10 -2 -18 -9 -18 -15 l0 -10 30 7 30 7 0 -12 c0 -6 5
-8 10 -5 6 3 10 1 10 -4 0 -6 6 -10 13 -8 6 1 11 -5 11 -14 -1 -9 4 -16 10
-16 6 0 19 -1 29 -1 l17 -2 0 -25 0 -25 -17 -1 -18 -1 29 -12 29 -13 -14 -6
-14 -5 12 -1 c6 -1 15 4 18 10 l7 10 14 -18 13 -18 1 15 c0 30 -13 60 -26 60
-16 0 -19 -16 -4 -23 6 -3 5 -4 -2 -3 l-13 3 3 23 2 23 -27 24 c-46 39 -51 43
-78 53 -27 10 -29 11 -57 3z" />
    <path d="M2043 1958 c-39 -20 -69 -60 -58 -78 3 -4 -3 -7 -12 -6 l-17 1 -4
-20 -4 -20 13 13 c7 6 21 12 30 12 l17 0 -5 20 -5 20 13 1 c8 1 21 1 29 0 l15
0 -12 5 c-19 8 -15 24 5 24 11 0 29 8 40 19 43 37 19 42 -45 9z" />
    <path d="M1982 1833 c2 -10 12 -19 22 -21 l18 -4 -7 11 c-3 6 -11 9 -16 6 -5
-4 -9 -2 -9 4 0 5 6 12 13 14 l12 5 -18 1 -18 1 3 -17z" />
    <path d="M1940 1772 c0 -59 56 -152 91 -152 5 0 9 -4 9 -9 0 -29 102 -38 178
-16 l52 16 0 14 c0 8 6 15 14 15 8 0 24 13 36 30 l21 29 6 51 6 50 -12 0 c-6
0 -11 -10 -12 -22 -2 -72 -48 -138 -99 -143 -3 0 -4 -4 -2 -9 2 -5 -4 -6 -13
-2 l-16 6 5 -9 c12 -18 -62 -28 -111 -15 l-23 6 11 22 10 21 -15 -19 -15 -19
-16 7 -16 6 7 11 7 12 -10 -6 -11 -7 -7 18 c-3 9 -7 19 -7 22 -1 3 -8 11 -17
18 -9 8 -10 10 -3 7 l13 -7 -13 21 c-7 12 -16 21 -20 21 -5 0 -8 16 -8 35 0
19 -4 35 -10 35 -5 0 -10 -17 -10 -38z" />
    <path d="M2063 1328 c3 -32 27 -53 27 -25 0 9 6 18 13 20 6 3 1 6 -13 8 l-25
2 40 6 c46 7 137 -6 146 -21 l7 -11 18 8 c11 4 27 7 37 6 l17 -2 0 14 0 14
-97 6 c-54 4 -115 7 -136 7 l-38 0 4 -32z" />
    <path d="M2346 1319 c12 -19 12 -33 0 -41 -16 -11 -4 -17 53 -28 29 -5 59 -17
67 -25 9 -8 20 -15 25 -15 5 0 22 -11 37 -25 15 -14 32 -25 38 -25 6 0 17 -11
24 -25 7 -14 17 -25 22 -25 4 0 8 -8 8 -17 1 -19 22 -53 34 -53 3 0 4 12 2 26
-3 15 -2 23 2 19 4 -3 7 -12 7 -18 0 -6 11 -14 25 -17 14 -4 24 -12 23 -18
l-3 -11 15 5 c8 4 15 8 15 11 0 16 -39 74 -71 105 -22 21 -39 42 -39 48 0 5
-7 10 -15 10 -8 0 -15 5 -15 10 0 6 -7 10 -15 10 -8 0 -15 4 -15 9 0 5 -25 22
-55 38 -31 15 -66 33 -78 40 -12 6 -40 15 -61 19 l-39 7 9 -14z m68 -28 l20
-8 -12 -7 c-15 -9 -52 2 -52 15 0 11 17 11 44 0z m97 -52 l11 -21 -14 5 c-7 2
-12 9 -11 15 l3 11 -15 -5 -15 -6 0 11 c0 19 29 12 41 -10z m98 -68 c18 -18
34 -42 36 -52 l4 -18 -14 6 c-8 2 -17 13 -20 24 -4 10 -15 24 -26 30 -11 5
-17 14 -14 20 4 5 1 8 -6 7 -6 -2 -13 2 -16 9 -8 22 23 7 56 -26z" />
    <path d="M2243 1272 l0 -13 31 3 c37 4 33 21 -5 22 l-26 1 0 -13z" />
    <path d="M2120 1259 l-15 -11 19 6 19 6 -13 -15 -12 -15 25 0 c32 0 57 9 57
22 l0 9 -20 -6 -20 -6 0 10 c0 14 -21 14 -40 0z" />
    <path d="M1499 1125 c-13 -13 -27 -25 -31 -25 -31 -1 -179 -122 -165 -136 8
-8 57 18 51 27 -3 5 -1 9 3 9 5 0 20 11 35 25 15 14 30 24 33 23 5 -3 49 28
72 50 7 7 17 11 22 8 5 -4 12 0 14 6 l5 13 1 -12 c1 -14 31 -19 31 -5 -2 40
-41 49 -71 17z" />
    <path d="M2670 1003 c0 -12 4 -24 9 -27 10 -6 26 -91 22 -118 -4 -31 17 -20
24 12 4 17 11 30 17 30 5 0 -2 20 -16 44 -14 24 -23 46 -21 50 3 3 2 4 -2 1
-3 -3 -12 3 -19 13 l-13 17 -1 -22z" />
    <path d="M2740 1016 c0 -16 27 -75 42 -90 l18 -20 0 17 c0 9 -4 17 -10 17 -5
0 -10 6 -10 13 0 18 -24 67 -32 67 -5 0 -8 -2 -8 -4z" />
    <path d="M1250 943 c-8 -4 -22 -14 -31 -25 -9 -10 -21 -18 -28 -18 -6 0 -11
-7 -11 -15 0 -8 -7 -15 -15 -15 -9 0 -18 -7 -21 -15 -4 -8 -12 -15 -20 -15 -8
0 -14 -5 -14 -10 0 -6 -11 -15 -25 -20 -14 -5 -25 -14 -25 -19 0 -6 -16 -18
-35 -27 -19 -9 -35 -20 -35 -25 0 -5 -16 -15 -35 -23 -19 -8 -35 -19 -35 -25
0 -5 -10 -13 -22 -17 -25 -8 -64 -41 -56 -49 3 -3 18 1 33 9 16 8 33 12 38 9
l10 -6 -6 10 c-4 6 0 13 8 17 l15 5 0 -14 c0 -18 16 -20 26 -3 l7 11 -11 -7
c-16 -10 -15 7 1 23 l12 14 -12 -7 c-7 -4 -13 -5 -13 -1 0 7 52 29 62 27 5 -1
7 1 6 6 -4 12 35 51 45 45 l10 -6 -6 10 -7 11 34 16 c19 9 41 16 50 16 9 0 15
3 15 8 -1 4 -1 13 0 21 l1 13 20 -5 c11 -3 18 -2 15 3 -3 4 2 11 11 14 9 4 14
9 11 12 -6 6 3 17 34 41 l16 13 0 -15 c0 -8 -4 -12 -8 -10 -4 3 -5 -4 -2 -16
l6 -21 9 17 c6 9 7 19 4 22 -3 3 -1 14 5 24 l10 19 -13 -1 c-7 0 -20 -3 -28
-6z" />
    <path d="M1715 920 c-10 -11 -15 -23 -11 -28 4 -4 13 1 20 11 7 9 19 17 25 17
7 0 9 5 6 10 -9 15 -20 12 -40 -10z" />
    <path d="M2710 796 l0 -38 13 5 12 4 -3 24 c-2 13 -8 28 -13 34 l-9 9 0 -38z" />
    <path d="M1613 804 c-3 -8 -26 -31 -51 -50 -25 -18 -42 -34 -39 -34 4 0 -1 -9
-10 -19 -9 -11 -21 -17 -26 -14 l-10 6 6 -10 c16 -26 -55 -72 -98 -63 -5 1 -1
-7 9 -18 l18 -20 -10 -19 c-13 -24 -94 -99 -104 -95 -5 1 -8 -6 -8 -17 l0 -19
-30 -12 c-16 -7 -30 -18 -30 -25 0 -6 -11 -17 -24 -23 l-24 -10 -9 9 -10 10
-7 -16 -6 -16 10 6 c21 13 9 -9 -17 -31 l-28 -24 -22 5 c-13 2 -21 0 -18 -4
11 -19 -39 -45 -137 -72 -27 -7 -48 -17 -48 -23 l0 -9 47 7 c26 3 57 13 69 21
13 8 30 15 39 15 8 0 24 9 35 20 11 11 27 20 35 20 8 0 20 9 27 20 7 11 18 20
24 20 6 0 28 15 48 34 20 19 45 38 56 41 11 3 20 13 20 21 0 8 5 14 10 14 6 0
18 8 28 19 91 97 111 120 128 150 10 18 35 50 54 70 19 20 42 46 50 59 8 12
19 22 25 22 13 0 55 45 55 59 0 17 -20 13 -27 -5z" />
    <path d="M2706 719 c-3 -17 -6 -47 -6 -65 0 -64 -59 -154 -101 -154 -11 0 -19
-4 -19 -10 0 -5 11 -10 25 -10 l25 0 39 49 c21 28 41 48 44 45 3 -3 5 1 4 8 0
7 1 23 1 35 l2 22 18 4 17 5 -17 1 -17 1 2 20 c1 21 17 29 17 8 0 -6 3 -9 6
-5 3 3 2 12 -2 19 -5 7 -9 22 -9 32 0 11 -5 21 -11 23 l-11 4 -7 -32z" />
    <path d="M470 616 c0 -27 12 -46 30 -46 10 0 20 -6 22 -12 l5 -13 99 -1 c54
-1 93 1 86 3 -6 3 -9 9 -6 15 l7 11 -66 -7 -67 -8 -40 18 c-22 10 -42 26 -46
36 -6 21 -24 24 -24 4z" />
    <path d="M760 600 c0 -5 -7 -10 -15 -10 -8 0 -15 -7 -15 -15 0 -23 23 -17 43
10 l18 25 -16 0 c-8 0 -15 -4 -15 -10z" />
    <path d="M2020 596 c0 -10 11 -29 25 -42 14 -13 25 -27 25 -31 0 -12 78 -93
90 -93 5 0 10 -7 10 -16 0 -19 109 -124 128 -124 l14 0 -13 17 -14 17 14 -9
14 -8 -7 11 c-4 7 -14 12 -22 12 l-15 0 6 10 c4 6 3 9 -2 8 -8 -3 -140 127
-181 178 -12 16 -33 43 -47 59 l-24 30 -1 -19z" />
    <path d="M1343 585 c-8 -22 6 -33 17 -15 13 20 12 30 0 30 -6 0 -13 -7 -17
-15z" />
    <path d="M2410 557 c0 -28 64 -72 118 -82 l31 -5 6 10 6 10 -19 0 c-33 0 -86
27 -106 54 -20 28 -36 34 -36 13z" />
    <path d="M390 516 c0 -14 5 -26 10 -26 6 0 10 9 10 19 0 11 -4 23 -10 26 l-10
6 0 -25z" />
    <path d="M2843 505 c-6 -11 -13 -37 -17 -57 -4 -21 -12 -38 -18 -38 l-10 0 6
-16 6 -15 -12 7 -11 7 6 -16 6 -17 -14 0 c-8 0 -16 -6 -17 -12 0 -7 -2 -17 -2
-23 -3 -21 -17 -34 -32 -28 l-15 6 -5 -20 -5 -19 -25 -2 c-14 -1 -34 -6 -44
-12 -10 -5 -30 -10 -45 -10 -14 0 -24 -4 -21 -8 l5 -9 -50 8 c-27 4 -57 5 -66
2 l-16 -6 7 11 7 11 -21 -4 c-11 -2 -20 0 -20 5 0 4 -7 11 -16 14 l-15 6 6
-10 6 -10 -15 6 c-9 3 -13 10 -10 15 5 9 4 10 -33 14 l-23 2 0 -11 c0 -6 31
-24 68 -41 l67 -29 90 0 90 0 40 19 c22 10 42 22 45 25 3 4 13 9 23 13 10 4
25 21 35 38 9 17 24 39 33 50 20 23 54 140 47 160 l-5 14 -10 -20z" />
    <path d="M450 408 c0 -10 5 -18 10 -18 6 0 10 -5 10 -10 0 -10 29 -40 94 -99
l26 -23 28 8 c15 4 33 6 41 5 l13 -2 -7 11 c-3 6 -12 10 -18 9 -7 -1 -24 -1
-39 0 l-28 1 0 16 c0 8 4 13 8 10 5 -3 9 0 9 7 l0 13 -26 -2 -26 -1 -16 19
c-9 10 -20 18 -25 18 -4 0 -18 12 -31 28 l-22 27 -1 -17z" />
    <path d="M636 261 c-8 -12 11 -26 68 -50 l48 -21 64 0 c70 0 83 11 30 27 l-33
10 -15 -8 c-8 -4 -21 -7 -29 -5 -43 9 -69 19 -69 29 0 6 -3 7 -7 4 -3 -4 -17
0 -29 8 l-23 15 -5 -9z" />
  </g>
  <g transform="translate(0.000000,245.000000) scale(0.100000,-0.100000)" fill="#0696ca" stroke="none">
    <path d="M881 632 c7 -9 14 -18 14 -19 0 -1 6 6 12 15 l11 18 -25 2 -25 2 13
-18z" />
    <path d="M507 424 c-3 -4 3 -20 15 -36 l21 -30 -13 -8 -12 -7 10 -7 c5 -3 12
1 15 8 7 17 -26 90 -36 80z" />
    <path d="M2791 400 l0 -35 10 18 10 17 -10 18 -10 17 0 -35z" />
    <path d="M2435 400 c4 -6 19 -9 35 -8 37 3 28 18 -11 18 l-30 0 6 -10z" />
    <path d="M2222 392 l-23 -4 4 -11 c2 -7 11 -11 21 -9 9 2 16 -3 16 -10 l0 -12
11 11 11 11 -8 14 -9 13 -23 -3z" />
    <path d="M2363 373 c-7 -2 -13 -13 -13 -24 0 -22 -10 -24 -29 -6 l-14 12 7
-12 c4 -7 3 -13 -2 -13 -5 0 -12 9 -15 20 -6 23 -27 27 -27 5 0 -8 5 -15 12
-15 6 0 9 -3 5 -6 -3 -4 4 -15 16 -26 12 -11 16 -16 8 -12 l-14 7 7 -12 c4 -6
15 -10 24 -9 l17 3 -3 -13 -2 -12 23 5 23 6 15 -17 14 -18 -15 9 -15 8 13 -14
13 -14 7 10 c8 12 18 12 50 1 12 -4 20 -12 17 -17 l-6 -9 33 7 c18 4 56 7 84
7 29 1 50 4 48 7 -6 11 24 19 44 12 l17 -7 -15 19 -15 19 14 -9 14 -8 -6 16
c-8 20 4 22 22 5 l14 -13 -7 13 -7 12 11 0 12 0 -5 14 c-8 20 3 27 24 16 l18
-10 11 21 c15 26 15 26 -46 33 l-51 5 -19 -14 c-10 -8 -34 -15 -51 -15 -18 0
-33 -5 -33 -11 l0 -10 -12 7 -11 7 18 14 19 13 -10 9 -9 9 -41 -7 c-22 -4 -47
-7 -55 -6 -70 10 -116 13 -126 8z m152 -30 c-11 -3 -34 -11 -51 -19 l-31 -15
-27 11 -27 10 6 10 6 10 72 -1 c40 -1 63 -3 52 -6z" />
    <path d="M1005 270 l-20 -9 18 0 18 -1 -6 -10 -6 -10 17 0 16 0 -11 13 c-6 8
-8 17 -4 20 8 9 3 8 -22 -3z" />
  </g>
  <g transform="translate(0.000000,245.000000) scale(0.100000,-0.100000)" fill="#208cae" stroke="none">
    <path d="M2052 1975 c-18 -8 -35 -21 -38 -30 -3 -8 -11 -15 -18 -15 -6 0 -22
-16 -36 -36 l-24 -37 -1 -77 0 -78 16 -18 c9 -11 19 -27 22 -36 3 -9 25 -29
48 -43 l41 -27 53 -5 c62 -7 105 2 105 21 l0 13 -45 -10 -45 -10 -37 11 c-21
6 -55 27 -77 46 l-38 35 8 13 7 13 -8 -7 c-4 -4 -14 5 -22 20 l-15 27 7 55 7
54 23 28 c13 15 25 32 27 37 1 5 10 11 18 13 8 2 20 9 26 17 l10 13 42 1 42 1
0 13 0 13 -32 0 c-18 -1 -48 -7 -66 -15z" />
    <path d="M2165 1980 c3 -5 13 -10 21 -10 8 0 14 -5 14 -12 0 -6 3 -9 6 -5 7 7
19 -2 74 -53 38 -35 49 -58 53 -114 1 -16 8 -31 15 -34 l12 -4 0 36 c0 38 -27
116 -40 116 -5 0 -11 8 -15 18 -6 20 -99 72 -128 72 l-18 0 6 -10z" />
    <path d="M2329 1730 c-1 -5 -2 -15 -3 -20 0 -6 -7 -14 -14 -19 -8 -5 -13 -12
-11 -17 1 -5 -9 -14 -21 -21 -25 -13 -36 -43 -16 -43 22 0 86 83 86 112 0 19
-19 26 -21 8z" />
    <path d="M2050 1359 l0 -14 73 -1 c159 -3 197 -5 197 -13 0 -8 35 -18 78 -23
6 -1 12 -5 12 -10 0 -5 5 -6 11 -3 6 4 20 -2 32 -13 12 -12 27 -21 32 -22 25
-1 45 -12 39 -21 -3 -5 -2 -9 3 -8 20 3 34 -2 28 -11 l-6 -10 20 0 21 0 0 -15
0 -14 15 6 c47 18 -78 102 -224 150 l-76 25 -127 5 -128 6 0 -14z" />
    <path d="M2250 1271 c-25 -4 -55 -12 -67 -19 -12 -7 -26 -12 -30 -11 -21 4
-33 -2 -33 -16 0 -19 2 -19 74 5 l59 20 66 0 66 0 63 -30 62 -29 48 -48 c93
-93 142 -225 142 -379 l0 -78 12 12 12 12 -1 53 c-3 105 -18 206 -34 222 -5 5
-9 17 -9 26 0 9 -6 22 -13 28 -8 6 -24 32 -38 57 l-23 46 -43 33 c-23 18 -40
35 -36 39 3 3 -3 6 -15 6 -11 0 -27 6 -34 14 -30 30 -150 49 -228 37z" />
    <path d="M2615 1181 c-3 -6 4 -15 15 -21 l21 -11 -7 -12 c-4 -7 -4 -9 0 -6 9
8 53 -31 58 -51 7 -33 58 -76 58 -49 0 43 -128 176 -145 150z" />
    <path d="M1449 1107 c-79 -57 -111 -82 -187 -144 l-27 -22 11 -11 11 -11 41
39 c23 22 45 36 48 33 4 -3 5 -1 1 4 -3 6 3 17 15 24 l20 12 -7 -13 c-4 -7 2
-4 12 8 18 20 72 58 84 59 4 0 19 12 34 27 15 15 31 26 35 23 7 -4 20 17 20
31 0 14 -36 -5 -111 -59z" />
    <path d="M2750 996 c0 -8 5 -18 10 -21 6 -4 8 -10 5 -15 -3 -4 2 -13 9 -19 8
-7 17 -30 21 -52 4 -21 11 -41 16 -45 5 -3 9 -21 9 -40 l0 -34 15 0 c24 0 7
91 -36 191 l-21 49 -14 0 c-8 0 -14 -6 -14 -14z" />
    <path d="M1165 889 c-27 -23 -51 -47 -53 -55 -2 -8 -10 -14 -17 -14 -7 0 -15
-3 -17 -7 -1 -5 -16 -15 -33 -23 -16 -9 -31 -24 -33 -34 l-4 -19 32 24 c18 13
39 29 49 34 9 6 20 16 24 23 4 6 17 12 27 12 11 0 19 4 18 9 -2 5 2 10 7 11
17 3 35 22 29 31 -3 5 4 9 16 9 l21 0 -6 10 c-3 6 -1 10 4 10 6 0 11 5 11 10
0 19 -26 9 -75 -31z" />
    <path d="M1700 902 c-51 -53 -95 -106 -80 -97 8 5 4 -3 -10 -18 -14 -15 -30
-27 -35 -27 -6 0 -17 -10 -25 -22 -8 -11 -34 -43 -57 -69 -23 -27 -47 -59 -54
-71 -7 -13 -31 -43 -55 -68 -24 -25 -51 -54 -59 -65 -9 -11 -13 -13 -9 -5 4 8
-9 -2 -29 -23 -20 -21 -37 -36 -37 -33 0 3 -15 -10 -34 -29 -19 -18 -37 -31
-40 -28 -3 4 -6 0 -6 -7 0 -7 -3 -10 -6 -7 -4 3 -15 -5 -26 -18 -11 -14 -26
-25 -34 -25 -8 0 -23 -9 -34 -20 -11 -11 -29 -20 -39 -20 -11 0 -22 -4 -26
-10 -3 -5 -13 -6 -22 -3 l-16 6 7 -11 7 -12 -18 -1 c-10 -1 -34 -3 -53 -6 -68
-8 -160 -10 -160 -4 0 4 -10 8 -22 8 -13 1 -24 7 -26 13 -2 5 -8 8 -13 4 -5
-3 -9 0 -9 5 0 6 -3 11 -7 10 -16 -2 -53 14 -53 23 0 6 -7 8 -15 4 -8 -3 -18
1 -22 8 -5 7 -20 21 -35 31 l-28 17 7 12 c3 6 3 8 -1 4 -9 -7 -46 27 -46 42 0
6 -4 10 -10 10 -5 0 -10 6 -10 13 0 7 -8 22 -17 33 -26 29 -36 50 -63 132 -14
39 -29 72 -34 72 l-9 0 6 -36 c7 -44 77 -187 114 -233 35 -43 105 -111 116
-111 4 0 17 -9 29 -20 12 -11 47 -30 77 -41 l56 -22 72 -5 73 -5 47 13 c81 22
157 57 236 109 83 55 257 221 257 246 0 8 6 15 13 15 14 1 77 81 77 98 0 7 5
12 10 12 6 0 10 7 10 15 0 8 6 15 13 15 8 0 42 32 78 71 35 39 79 87 97 105
17 19 32 39 32 44 0 18 -24 9 -50 -18z" />
    <path d="M1860 800 c0 -22 16 -43 30 -38 l12 4 -21 24 -20 25 -1 -15z" />
    <path d="M2327 730 c6 -22 21 -35 30 -27 9 10 -8 47 -22 47 l-13 0 5 -20z" />
    <path d="M952 720 c-12 -11 -24 -20 -27 -20 -3 0 -24 -12 -48 -27 -65 -42
-155 -82 -198 -89 l-39 -7 0 -12 0 -12 48 4 c26 3 48 8 50 13 2 5 10 6 18 3
l14 -5 0 16 0 16 24 0 c13 0 35 9 49 20 14 11 30 20 37 20 6 0 9 4 6 9 -4 5 7
12 24 16 16 4 28 12 27 18 -1 7 4 11 11 10 6 -2 12 1 12 6 0 5 9 11 20 14 11
3 20 10 20 16 0 17 -24 13 -48 -9z" />
    <path d="M2844 699 c3 -17 6 -35 6 -40 0 -5 5 -9 10 -9 l10 0 0 40 0 40 -16 0
-16 0 6 -31z" />
    <path d="M466 690 l-6 -30 20 -48 c10 -26 19 -43 19 -38 1 5 7 3 14 -3 8 -6
17 -8 20 -4 4 3 9 0 12 -8 l5 -14 30 1 c46 2 50 3 50 14 0 6 -14 10 -30 10
-69 0 -110 41 -110 109 0 48 -15 54 -24 11z" />
    <path d="M1940 686 c0 -9 6 -16 14 -16 8 0 17 -11 20 -24 3 -14 12 -31 19 -38
7 -7 18 -20 23 -29 28 -49 231 -269 248 -269 6 0 17 -9 24 -20 7 -11 16 -20
22 -20 5 0 25 -11 45 -24 20 -14 68 -32 107 -41 l71 -16 46 7 c25 4 70 15 98
26 l53 19 44 44 44 45 21 62 c12 35 25 91 28 126 l6 62 -12 0 -11 0 0 -44 c0
-47 -30 -155 -49 -177 -6 -8 -22 -30 -34 -49 -13 -19 -28 -35 -35 -35 -7 0
-16 -5 -20 -11 -4 -5 -25 -18 -47 -29 l-40 -19 -80 0 -80 0 -65 29 c-72 33
-78 37 -126 81 -18 17 -35 30 -37 27 -2 -2 -15 11 -28 28 -13 17 -43 52 -66
77 -24 24 -40 48 -38 53 3 4 0 11 -6 15 l-12 7 7 -14 c4 -8 0 -5 -9 6 -9 11
-25 30 -35 43 -11 12 -20 24 -20 27 0 8 -72 100 -81 103 -5 2 -9 -3 -9 -12z" />
    <path d="M2690 629 l0 -41 13 11 c8 6 13 21 11 33 -1 13 -3 26 -3 31 -1 4 -5
7 -11 7 l-10 0 0 -41z" />
    <path d="M2402 588 c21 -40 24 -47 27 -65 0 -4 6 -2 13 5 l11 11 -24 46 c-13
25 -30 45 -37 45 l-12 0 22 -42z" />
    <path d="M2666 563 c-3 -10 -21 -28 -39 -40 l-33 -23 -40 0 c-21 0 -52 7 -68
15 -33 18 -36 18 -36 5 0 -14 70 -42 100 -41 45 3 65 7 80 17 19 11 60 63 60
75 0 16 -19 9 -24 -8z" />
  </g>
  <g transform="translate(0.000000,245.000000) scale(0.100000,-0.100000)" fill="#0d8bb3" stroke="none">
    <path d="M2259 1923 l-14 -17 12 7 c6 4 14 3 18 -3 7 -11 25 -4 25 10 0 5 -7
6 -17 3 l-16 -6 7 11 c11 18 0 14 -15 -5z" />
    <path d="M1980 1911 c-5 -11 -6 -22 -2 -25 10 -6 43 30 35 38 -11 11 -22 6
-33 -13z" />
    <path d="M2290 1890 c-6 -11 -8 -24 -5 -29 3 -5 -1 -11 -7 -14 -7 -3 -3 -4 9
-4 l23 1 -10 10 c-16 16 -12 25 9 19 l20 -5 -6 -16 -6 -17 12 11 12 11 -7 16
c-3 9 -10 14 -15 11 l-9 -5 6 15 6 16 -11 0 c-5 0 -15 -9 -21 -20z" />
    <path d="M1936 1817 c-9 -35 -7 -40 9 -27 17 14 20 36 6 44 -5 3 -11 -4 -15
-17z" />
    <path d="M2286 1657 l4 -13 -20 -2 c-42 -4 -49 -5 -45 -12 5 -7 45 -5 68 5 21
9 22 21 3 28 l-15 6 5 -12z" />
    <path d="M2005 1639 l1 -22 27 -13 26 -14 7 12 c4 7 4 10 0 6 -5 -4 -20 7 -35
23 l-28 30 2 -22z" />
    <path d="M2213 1604 l-4 -12 -22 5 -22 4 16 -10 17 -11 31 11 c17 6 31 15 31
19 0 13 -42 7 -47 -6z" />
    <path d="M2040 1351 c0 -6 5 -13 10 -16 6 -4 8 -9 6 -13 -5 -9 16 -36 29 -39
6 -1 10 9 10 22 0 13 -3 21 -7 19 -4 -3 -12 5 -18 16 -11 21 -30 27 -30 11z" />
    <path d="M2215 1351 l-30 -7 36 -5 36 -5 0 13 c0 7 -3 12 -6 12 -3 -1 -19 -4
-36 -8z" />
    <path d="M2316 1335 c7 -17 40 -20 50 -4 l7 11 -23 -7 -23 -7 7 11 7 11 -15 0
-15 0 5 -15z" />
    <path d="M2397 1314 c-8 -8 1 -24 13 -24 4 0 10 7 14 15 l5 15 -13 0 c-7 0
-16 -3 -19 -6z" />
    <path d="M2440 1301 c0 -6 1 -13 3 -15 1 -2 -7 -13 -17 -25 -11 -12 -14 -21
-8 -21 6 0 17 9 25 20 8 11 17 17 20 13 4 -3 0 -14 -9 -24 l-16 -17 24 -13
c13 -7 36 -12 52 -11 l29 3 -11 -14 c-12 -14 -7 -27 11 -27 5 0 7 7 3 15 l-5
14 17 10 17 10 -42 -2 c-24 -2 -43 1 -43 6 0 4 -4 5 -10 2 l-10 -6 0 16 c0 9
5 25 10 35 l10 20 -15 -6 -16 -6 3 12 c2 7 -3 15 -9 17 -7 3 -13 0 -13 -6z" />
    <path d="M2136 1256 l6 -16 -16 0 c-9 0 -16 -4 -16 -9 0 -6 8 -9 18 -8 l18 1
1 18 c1 10 -2 20 -8 23 l-9 6 6 -15z" />
    <path d="M2202 1263 c-13 -5 -7 -23 9 -23 6 0 7 5 3 11 l-7 11 23 -7 23 -7 -7
11 c-7 11 -22 13 -44 4z" />
    <path d="M2568 1164 c-4 -4 3 -20 15 -36 12 -17 32 -47 44 -67 12 -20 27 -35
34 -33 l11 3 -6 -18 -7 -18 13 13 13 13 -24 20 c-13 10 -20 19 -16 19 5 0 1 8
-8 18 -10 10 -15 21 -12 23 2 3 -8 20 -23 38 -15 18 -30 29 -34 25z" />
    <path d="M1544 1145 l-6 -16 -13 11 c-16 13 -28 0 -15 -16 6 -6 20 -10 30 -7
l20 5 0 -11 c0 -6 8 -11 18 -11 l17 0 -24 19 -24 18 7 12 c4 6 5 11 1 11 -3 0
-8 -7 -11 -15z" />
    <path d="M1431 1087 c-6 -8 -8 -17 -4 -20 7 -8 33 11 33 24 0 13 -16 11 -29
-4z" />
    <path d="M2704 1065 l-19 -15 20 7 c11 3 17 3 13 -1 -3 -4 2 -16 13 -27 10
-10 19 -26 19 -34 0 -8 7 -15 15 -15 8 0 15 5 15 11 l0 10 -12 -7 -11 -7 7 12
7 11 -21 35 c-25 41 -21 39 -46 20z" />
    <path d="M1252 949 l-31 -28 9 -6 c6 -3 10 -1 10 5 0 6 4 9 8 6 5 -3 20 6 35
18 l27 24 -13 5 c-7 2 -27 -8 -45 -24z" />
    <path d="M1719 945 c-4 -36 -19 -66 -28 -60 -4 2 -25 -17 -46 -43 -22 -26 -32
-41 -22 -33 9 7 17 10 17 6 0 -5 9 0 19 9 l20 18 -6 16 -6 15 10 -6 c5 -3 25
7 44 23 l34 28 -17 18 c-10 10 -19 14 -19 9z" />
    <path d="M2795 920 c-7 -12 4 -61 19 -79 6 -7 9 -26 8 -41 -2 -16 1 -31 6 -34
l9 -5 -1 47 -1 47 -14 -3 -13 -3 6 26 7 27 -12 -7 -11 -8 7 22 c7 21 1 29 -10
11z" />
    <path d="M1166 881 c-3 -4 -2 -12 2 -18 l7 -11 18 13 17 13 -20 5 c-11 3 -22
2 -24 -2z" />
    <path d="M1604 782 l7 -11 -27 -7 -26 -7 14 -8 c20 -13 26 -11 38 10 l10 20
-12 7 -11 7 7 -11z" />
    <path d="M987 740 c-10 -10 -14 -20 -9 -23 7 -5 42 26 42 38 0 10 -16 3 -33
-15z" />
    <path d="M1535 720 l-6 -20 -11 6 -11 7 8 -13 8 -12 -14 -9 c-7 -4 -10 -11 -6
-15 7 -8 67 53 67 68 0 17 -29 7 -35 -12z" />
    <path d="M939 703 c-1 -4 -1 -12 0 -17 1 -5 -4 -6 -12 -3 -8 3 -20 2 -26 -3
l-13 -7 11 -7 c6 -4 11 -3 11 3 0 6 6 8 13 5 8 -3 19 2 26 10 l12 14 -11 7
c-5 3 -11 3 -11 -2z" />
    <path d="M836 628 l7 -11 -17 6 -17 7 7 -11 7 -11 -24 7 -24 7 12 -13 12 -12
26 11 c25 12 34 32 14 32 l-10 0 7 -12z" />
    <path d="M1436 622 c-3 -6 1 -15 8 -21 l14 -12 6 9 c3 6 -1 15 -8 21 l-14 12
-6 -9z" />
    <path d="M526 571 c-4 -5 -2 -12 4 -16 5 -3 10 -3 10 2 0 4 4 2 9 -5 l8 -14 7
18 c4 10 4 15 0 11 -4 -4 -13 -2 -20 4 l-12 10 -6 -10z" />
    <path d="M618 558 c15 -15 49 -20 57 -9 3 5 0 13 -6 17 l-12 7 7 -11 7 -12
-10 0 c-6 0 -11 5 -11 10 0 6 -10 10 -22 10 l-22 0 12 -12z" />
    <path d="M1346 491 l-17 -19 9 -6 c5 -3 17 3 26 13 l17 19 -9 6 c-5 3 -17 -3
-26 -13z" />
    <path d="M1300 460 c-8 -5 -10 -10 -5 -10 6 0 -1 -9 -14 -19 l-24 -18 13 -8
13 -8 -8 13 -8 13 16 -6 16 -6 8 12 c5 9 13 48 9 47 -1 0 -8 -5 -16 -10z" />
    <path d="M2146 442 c-3 -6 1 -15 8 -21 l14 -12 6 9 c3 6 -1 15 -8 21 l-14 12
-6 -9z" />
    <path d="M1217 379 l-27 -27 14 -5 14 -6 20 22 c12 12 18 27 14 32 l-7 10 -28
-26z" />
    <path d="M1142 319 c-15 -24 -10 -35 11 -22 l14 8 -6 17 -6 18 -13 -21z" />
  </g>
  <g transform="translate(0.000000,245.000000) scale(0.100000,-0.100000)" fill="#1487a3" stroke="none">
    <path d="M2130 1990 c0 -5 13 -10 28 -10 15 0 45 -9 67 -20 45 -23 45 -23 45
-10 0 14 -49 36 -97 44 l-43 6 0 -10z" />
    <path d="M2025 1958 l-49 -33 -24 -47 c-13 -25 -22 -55 -19 -65 l4 -18 6 15
c3 8 8 26 11 41 7 32 71 97 114 115 17 8 32 16 32 19 0 13 -30 2 -75 -27z" />
    <path d="M2290 1922 c0 -6 5 -14 11 -18 6 -3 20 -27 31 -51 11 -25 22 -42 25
-40 7 8 -32 90 -50 106 l-17 13 0 -10z" />
    <path d="M2347 1764 c-4 -4 -7 -17 -7 -29 0 -12 -13 -41 -30 -63 l-30 -42 -51
-25 c-56 -29 -60 -43 -5 -25 l34 11 40 43 c22 23 45 59 51 79 13 38 12 64 -2
51z" />
    <path d="M1934 1724 c4 -16 15 -40 23 -54 l16 -25 5 13 c2 7 -3 21 -12 31 -9
10 -16 25 -16 34 0 9 -5 19 -11 23 l-12 7 7 -29z" />
    <path d="M2020 1606 c13 -17 79 -41 87 -32 3 3 -3 8 -13 12 -10 3 -31 12 -46
20 -33 18 -44 18 -28 0z" />
    <path d="M2020 1355 c0 -8 6 -15 14 -15 7 0 19 7 26 15 l12 15 -26 0 -26 0 0
-15z" />
    <path d="M2235 1360 c3 -5 18 -10 33 -10 l27 0 -15 10 c-8 5 -23 10 -33 10
l-18 0 6 -10z" />
    <path d="M2303 1354 c3 -4 41 -19 84 -34 43 -15 87 -30 98 -34 l20 -8 -20 16
c-25 21 -201 78 -182 60z" />
    <path d="M2530 1255 c13 -14 26 -23 28 -20 7 7 81 -61 130 -119 74 -89 163
-296 145 -341 l-5 -15 16 0 c20 0 20 1 -4 88 -46 166 -153 319 -286 410 -43
29 -53 28 -24 -3z" />
    <path d="M2183 1241 c-29 -10 -55 -16 -58 -13 -3 3 -5 -1 -5 -10 l0 -14 64 20
c64 21 93 37 65 35 -8 0 -38 -8 -66 -18z" />
    <path d="M2385 1246 c17 -9 37 -15 45 -16 l14 0 -10 10 c-5 5 -25 12 -44 15
l-35 5 30 -14z" />
    <path d="M2450 1227 c0 -2 22 -18 50 -36 27 -18 66 -52 86 -77 20 -24 39 -42
42 -40 9 10 -71 96 -117 125 -44 29 -61 36 -61 28z" />
    <path d="M1463 1115 c-36 -32 -17 -32 22 0 17 13 25 24 18 25 -7 0 -25 -11
-40 -25z" />
    <path d="M1370 1050 c-19 -16 -30 -29 -25 -29 6 0 26 13 45 29 19 16 31 29 25
29 -5 0 -26 -13 -45 -29z" />
    <path d="M2630 1055 c0 -3 9 -23 19 -43 10 -20 24 -57 31 -81 6 -23 13 -41 16
-38 8 8 -18 100 -39 135 -18 30 -27 39 -27 27z" />
    <path d="M594 1005 c-3 -14 -10 -25 -15 -25 -5 0 -9 -7 -9 -15 0 -26 17 -17
39 21 25 42 25 44 6 44 l-15 0 -6 -25z" />
    <path d="M1140 869 c-356 -281 -534 -356 -627 -263 -14 14 -28 23 -30 20 -3
-3 8 -19 26 -35 l31 -29 61 0 c115 1 338 106 429 203 13 14 29 25 35 25 6 0
24 13 41 28 41 40 172 145 195 157 19 10 26 25 12 25 -5 0 -82 -59 -173 -131z" />
    <path d="M2210 986 c0 -9 7 -16 16 -16 9 0 14 5 12 12 -6 18 -28 21 -28 4z" />
    <path d="M320 945 c0 -8 7 -15 15 -15 8 0 15 7 15 15 0 8 -7 15 -15 15 -8 0
-15 -7 -15 -15z" />
    <path d="M1697 877 c-26 -29 -54 -62 -63 -74 l-15 -23 10 0 c5 0 14 6 18 14 4
8 32 39 61 69 28 31 52 58 52 61 0 15 -19 1 -63 -47z" />
    <path d="M2255 893 c7 -30 31 -60 40 -51 8 8 -26 78 -38 78 l-9 0 7 -27z" />
    <path d="M2690 856 c0 -14 5 -28 10 -31 l10 -6 0 25 c0 14 -4 28 -10 31 l-10
6 0 -25z" />
    <path d="M320 820 l0 -40 10 0 10 0 0 40 0 40 -10 0 -10 0 0 -40z" />
    <path d="M500 820 c-13 -31 -9 -47 8 -36 6 3 15 19 20 36 l11 30 -13 0 c-8 0
-19 -14 -26 -30z" />
    <path d="M1830 827 c0 -2 11 -16 24 -32 l23 -27 7 10 c3 5 -1 12 -9 16 -8 3
-15 12 -15 21 0 8 -7 15 -15 15 -8 0 -15 -2 -15 -3z" />
    <path d="M2300 796 c0 -9 7 -16 16 -16 9 0 14 5 12 12 -6 18 -28 21 -28 4z" />
    <path d="M2320 755 c0 -8 5 -15 11 -15 l10 0 -7 -12 -7 -11 13 8 13 8 -6 -16
-6 -16 16 -16 c24 -25 25 -12 3 38 -21 46 -40 62 -40 32z" />
    <path d="M1545 712 c-19 -21 -50 -59 -68 -83 -72 -98 -230 -259 -301 -305 -22
-15 -53 -35 -67 -45 -33 -22 -143 -69 -163 -69 -8 0 -18 -5 -22 -12 l-7 -11
32 6 c137 28 382 216 513 394 18 24 57 69 86 100 28 30 52 57 52 59 0 14 -24
-1 -55 -34z" />
    <path d="M1900 731 c13 -25 33 -28 28 -4 -2 10 -11 19 -21 21 l-19 4 12 -21z" />
    <path d="M2840 733 l0 -20 15 0 16 0 -3 15 c-2 9 -9 17 -15 20 l-13 4 0 -19z" />
    <path d="M322 713 c2 -14 9 -28 16 -31 l12 -4 0 31 0 31 -16 0 -15 0 3 -27z" />
    <path d="M475 730 c-3 -5 -3 -14 0 -20 3 -5 1 -18 -4 -28 l-10 -19 15 0 14 0
0 23 c0 12 3 29 6 38 l6 16 -10 0 c-6 0 -14 -4 -17 -10z" />
    <path d="M2695 708 c-2 -7 -6 -39 -10 -70 l-6 -57 -21 -27 c-12 -14 -35 -35
-52 -46 l-31 -20 25 8 c64 18 98 69 106 162 5 56 0 82 -11 50z" />
    <path d="M1930 693 c0 -7 34 -52 74 -98 14 -16 26 -25 26 -19 0 5 -6 16 -12
23 -7 6 -13 15 -14 19 -2 34 -74 106 -74 75z" />
    <path d="M2851 626 l-2 -54 11 -7 10 -6 0 60 c0 76 -16 81 -19 7z" />
    <path d="M335 638 c9 -41 20 -54 29 -33 l6 16 -11 -7 -11 -7 7 32 7 31 -17 0
-17 0 7 -32z" />
    <path d="M2370 651 c0 -5 7 -16 15 -24 8 -8 11 -17 8 -21 -4 -3 -1 -6 6 -6 7
0 9 -4 6 -10 -3 -5 -1 -10 5 -10 5 0 18 -16 27 -35 9 -19 20 -32 25 -29 4 3 8
0 8 -5 0 -6 7 -11 16 -11 l16 0 -30 28 c-16 15 -41 51 -56 80 -24 47 -46 67
-46 43z" />
    <path d="M360 561 c0 -17 31 -74 37 -68 2 3 0 14 -6 25 -6 11 -8 22 -5 24 2 3
-2 11 -11 18 l-15 12 0 -11z" />
    <path d="M2080 504 c0 -9 55 -74 62 -74 11 0 -35 68 -49 74 -7 3 -13 3 -13 0z" />
    <path d="M400 472 c0 -32 159 -212 187 -212 7 0 13 -4 13 -9 0 -10 103 -57
149 -66 l34 -7 -7 11 c-4 6 -13 11 -21 11 -8 0 -26 5 -42 12 -15 6 -34 12 -41
14 -67 13 -252 191 -252 241 0 7 -4 13 -10 13 -5 0 -10 -3 -10 -8z" />
    <path d="M2840 436 c-12 -33 -12 -36 -1 -36 9 0 22 52 15 59 -2 2 -8 -8 -14
-23z" />
    <path d="M2225 340 c36 -38 104 -85 111 -77 3 3 -4 11 -16 17 -12 6 -29 19
-39 28 -62 60 -107 85 -56 32z" />
    <path d="M2792 325 c-17 -25 -28 -45 -23 -45 11 0 66 79 59 85 -2 3 -19 -15
-36 -40z" />
  </g>
  <g transform="translate(0.000000,245.000000) scale(0.100000,-0.100000)" fill="#398c9f" stroke="none">
    <path d="M2100 1990 l-25 -8 32 -1 c17 -1 35 4 38 9 7 11 -9 11 -45 0z" />
    <path d="M2022 1959 c-18 -12 -31 -24 -28 -26 5 -5 66 35 66 43 0 6 -3 5 -38
-17z" />
    <path d="M2264 1944 c15 -14 31 -23 34 -20 6 7 -39 45 -53 45 -5 0 3 -11 19
-25z" />
    <path d="M1951 1877 l-21 -43 0 -55 c0 -30 4 -59 8 -66 4 -6 6 20 5 57 l-2 68
19 38 c11 21 18 39 16 41 -2 2 -13 -16 -25 -40z" />
    <path d="M1950 1687 c0 -18 41 -66 74 -86 49 -31 55 -25 9 8 -22 16 -49 42
-61 57 -12 16 -22 25 -22 21z" />
    <path d="M2293 1645 l-43 -44 -47 -15 -48 -15 22 0 c48 -2 126 50 154 102 14
24 9 21 -38 -28z" />
    <path d="M2400 1328 c9 -9 140 -67 140 -63 0 6 -89 51 -120 60 -14 4 -23 5
-20 3z" />
    <path d="M2220 1248 c-19 -5 -39 -14 -45 -19 -5 -5 13 -3 40 5 28 8 59 16 70
19 l20 5 -25 0 c-14 0 -41 -4 -60 -10z" />
    <path d="M2390 1248 c3 -3 28 -15 55 -27 l50 -21 -25 20 c-14 11 -30 20 -37
20 -6 0 -20 3 -30 7 -10 3 -16 4 -13 1z" />
    <path d="M697 1150 c-9 -11 -17 -25 -17 -30 0 -19 19 -10 40 20 l21 30 -13 0
c-7 0 -21 -9 -31 -20z" />
    <path d="M2582 1120 c24 -30 52 -74 62 -98 11 -23 21 -40 23 -38 9 9 -47 103
-86 146 l-42 45 43 -55z" />
    <path d="M2660 1166 c0 -4 18 -30 41 -58 22 -29 54 -78 70 -110 16 -32 32 -58
35 -58 11 0 -68 138 -106 184 -22 26 -40 45 -40 42z" />
    <path d="M1460 1115 c-35 -25 -58 -45 -51 -45 7 0 28 12 46 28 19 15 44 35 57
44 51 38 8 15 -52 -27z" />
    <path d="M2160 1086 c0 -9 7 -16 16 -16 9 0 14 5 12 12 -6 18 -28 21 -28 4z" />
    <path d="M614 1045 c-3 -8 -3 -19 1 -25 l7 -11 14 18 c7 10 14 21 14 26 0 13
-31 7 -36 -8z" />
    <path d="M1315 1005 c-16 -13 -25 -24 -19 -25 6 0 21 11 34 25 30 32 24 32
-15 0z" />
    <path d="M2210 1001 c0 -24 24 -71 36 -71 18 0 18 2 -3 45 -15 32 -33 47 -33
26z" />
    <path d="M328 975 l-5 -25 13 0 14 0 0 25 c0 14 -4 25 -9 25 -5 0 -11 -11 -13
-25z" />
    <path d="M530 890 c-13 -27 -21 -52 -19 -54 10 -10 27 11 47 57 l21 47 -13 0
c-7 0 -23 -22 -36 -50z" />
    <path d="M320 886 c0 -19 5 -38 10 -41 l10 -6 0 40 0 41 -10 0 c-5 0 -10 -15
-10 -34z" />
    <path d="M1170 890 c-19 -16 -32 -29 -29 -30 4 0 22 13 40 30 19 16 32 30 29
30 -3 0 -21 -13 -40 -30z" />
    <path d="M2811 915 c0 -5 8 -35 19 -65 l20 -55 -6 35 c-7 36 -32 102 -33 85z" />
    <path d="M1770 901 c0 -12 29 -35 36 -28 11 10 -5 37 -21 37 -8 0 -15 -4 -15
-9z" />
    <path d="M1816 851 c-6 -10 22 -37 29 -29 8 7 -5 38 -15 38 -5 0 -11 -4 -14
-9z" />
    <path d="M1071 815 c-24 -19 -41 -35 -37 -35 12 0 76 45 80 58 7 17 7 16 -43
-23z" />
    <path d="M1639 802 c-19 -20 -39 -44 -44 -52 l-9 -15 17 14 c18 15 81 91 75
91 -1 0 -19 -17 -39 -38z" />
    <path d="M2290 820 l0 -20 14 0 14 0 -5 -20 -5 -20 16 0 c20 0 20 1 -1 45 -19
39 -33 46 -33 15z" />
    <path d="M489 777 l-10 -40 8 -8 9 -9 15 48 15 49 -13 0 -13 0 -11 -40z" />
    <path d="M1846 812 c-2 -4 8 -23 24 -42 l28 -35 9 8 8 9 -17 12 c-10 7 -14 17
-10 21 4 5 1 5 -5 1 l-13 -7 0 20 c0 21 -14 28 -24 13z" />
    <path d="M327 793 c-11 -10 -8 -63 3 -63 6 0 10 16 10 35 0 36 -2 40 -13 28z" />
    <path d="M2700 748 l-5 -47 8 8 c5 5 7 26 5 47 l-3 39 -5 -47z" />
    <path d="M2837 783 c-6 -12 7 -48 19 -50 l10 -2 -4 30 c-4 27 -16 38 -25 22z" />
    <path d="M972 739 c-43 -31 -56 -48 -24 -30 23 13 79 60 71 61 -3 0 -24 -14
-47 -31z" />
    <path d="M1922 701 c7 -11 15 -18 20 -15 11 7 -3 34 -18 34 l-14 0 12 -19z" />
    <path d="M2350 694 l0 -15 12 7 11 7 -6 -17 -7 -18 13 -19 c8 -10 17 -16 22
-11 l8 7 -6 -18 -7 -18 12 7 11 7 -6 -17 -7 -17 12 7 11 7 -6 -17 -7 -17 11 6
10 7 6 -21 c3 -12 9 -21 14 -21 5 0 8 -5 7 -12 -2 -7 6 -13 17 -14 11 -1 29
-5 40 -9 11 -4 2 4 -20 17 l-40 24 -45 87 c-44 84 -60 104 -60 71z" />
    <path d="M328 678 c2 -10 8 -18 13 -18 5 0 9 8 9 18 0 10 -6 19 -14 19 l-13 0
5 -19z" />
    <path d="M860 665 c-30 -19 -50 -35 -45 -35 9 0 105 60 105 66 0 6 -2 5 -60
-31z" />
    <path d="M1511 665 c-17 -20 -31 -40 -31 -46 0 -9 17 8 59 64 24 31 4 18 -28
-18z" />
    <path d="M2686 638 c-4 -23 -3 -45 1 -49 4 -4 9 14 10 42 3 60 -2 64 -11 7z" />
    <path d="M1950 660 c0 -4 9 -15 19 -24 l19 -17 7 10 6 11 -15 6 c-9 3 -14 9
-11 13 2 4 -2 8 -10 8 -8 0 -15 -3 -15 -7z" />
    <path d="M2002 613 l-12 -5 29 -36 c34 -44 108 -124 92 -101 -6 9 -9 19 -6 22
3 4 2 5 -1 2 -10 -7 -86 93 -80 104 8 12 -5 20 -22 14z" />
    <path d="M354 574 c22 -65 106 -216 106 -191 0 4 -11 24 -25 44 -13 20 -22 40
-19 45 3 4 1 8 -4 8 -13 0 -33 50 -26 62 l7 11 -13 -8 -13 -8 7 29 c4 16 4 26
0 22 -4 -4 -13 0 -20 10 l-14 17 14 -41z" />
    <path d="M2843 438 c-7 -24 -14 -52 -18 -63 l-6 -20 14 25 c15 25 33 100 25
100 -2 0 -9 -19 -15 -42z" />
    <path d="M2180 385 c69 -70 75 -70 13 0 -26 30 -52 55 -58 55 -5 0 15 -25 45
-55z" />
    <path d="M1107 274 c-32 -20 -63 -37 -70 -38 -6 -1 -19 -6 -27 -11 -8 -5 -49
-17 -90 -26 l-75 -17 33 -1 c60 -2 265 84 287 119 9 15 4 13 -58 -26z" />
    <path d="M2739 267 c-14 -12 -35 -28 -45 -35 -10 -7 -5 -6 11 3 37 18 84 55
70 54 -5 0 -22 -10 -36 -22z" />
    <path d="M575 264 c24 -18 75 -46 75 -41 0 3 -17 16 -38 31 -40 28 -71 36 -37
10z" />
    <path d="M2355 245 c38 -24 55 -30 55 -21 0 5 -79 46 -88 46 -4 0 11 -12 33
-25z" />
    <path d="M660 222 c0 -12 68 -37 77 -28 3 3 -8 8 -23 12 -16 4 -35 11 -41 17
l-13 9 0 -10z" />
    <path d="M2435 210 c11 -5 31 -8 45 -8 l25 0 -25 8 c-14 4 -34 8 -45 8 l-20 1
20 -9z" />
    <path d="M2605 210 l-30 -8 25 0 c14 0 34 3 45 8 l20 9 -15 -1 c-8 0 -28 -4
-45 -8z" />
  </g>
  <g transform="translate(0.000000,245.000000) scale(0.100000,-0.100000)" fill="#23a283" stroke="none">
    <path d="M1095 1865 c-209 -46 -416 -195 -566 -409 -44 -61 -119 -195 -119
-211 0 -16 18 0 35 33 11 20 51 84 89 142 l70 105 76 75 c71 71 160 140 180
140 5 0 15 6 22 13 21 21 76 47 158 74 l75 24 115 2 115 1 65 -23 c218 -76
474 -280 561 -448 7 -12 18 -24 25 -27 l14 -5 0 14 c0 21 -151 206 -218 265
-222 200 -472 285 -697 235z" />
    <path d="M1034 1376 c-64 -16 -144 -53 -144 -66 0 -15 12 -12 86 22 l69 32 95
1 95 0 70 -33 c75 -36 142 -81 182 -124 15 -16 30 -28 35 -28 16 0 8 29 -11
39 -10 6 -35 25 -55 43 -42 37 -90 68 -156 99 l-45 22 -85 3 -85 3 -51 -13z" />
    <path d="M837 1277 c-16 -12 -41 -32 -55 -44 l-27 -21 8 -9 9 -8 12 18 c7 9
18 17 24 17 6 0 15 6 19 13 4 6 17 17 27 23 21 11 34 34 19 34 -4 0 -21 -10
-36 -23z" />
  </g>
  <g transform="translate(0.000000,245.000000) scale(0.100000,-0.100000)" fill="#209e98" stroke="none">
    <path d="M462 1351 c-11 -21 -18 -42 -15 -45 4 -3 2 -6 -4 -6 -16 0 -24 -28
-11 -36 l11 -7 -7 11 -7 12 11 0 c9 0 22 23 30 55 2 6 11 16 22 23 10 7 16 18
13 23 -11 17 -23 9 -43 -30z" />
    <path d="M2000 1361 c0 -5 7 -12 16 -15 21 -8 21 -8 21 9 l0 15 -19 0 c-10 0
-18 -4 -18 -9z" />
    <path d="M925 1335 c-17 -7 -42 -24 -57 -38 -16 -14 -28 -23 -28 -20 0 6 -93
-68 -98 -77 -1 -3 -23 -28 -48 -55 -88 -95 -203 -303 -218 -396 l-4 -26 13 0
13 0 -5 14 c-3 7 0 13 6 13 l11 0 -6 26 -7 27 11 -7 12 -7 -7 17 -6 17 12 -8
13 -8 -7 23 -7 23 11 -7 11 -7 -7 17 -6 17 12 -8 13 -8 -7 23 -7 23 12 -8 13
-8 -7 11 -7 12 11 0 c6 0 8 5 5 10 -3 6 -2 10 2 10 5 0 14 9 21 21 l13 21 -13
-7 c-7 -3 -4 1 6 9 11 9 16 16 10 16 -5 0 -1 5 8 11 l17 10 -6 16 -6 16 11 -7
12 -7 -7 17 -6 17 11 -7 11 -7 23 32 c13 17 22 35 21 40 -2 5 2 8 9 6 7 -1 12
3 13 9 0 5 17 25 38 43 20 18 37 40 37 47 0 8 6 14 13 12 6 -1 24 6 39 16 l28
18 -7 11 -6 10 12 -7 12 -8 14 12 c8 7 12 17 8 23 l-6 10 17 -6 17 -7 -7 11
-7 11 21 -6 c11 -4 23 -2 26 3 11 17 -8 20 -39 6z" />
    <path d="M1365 1310 l-6 -10 16 6 16 6 -3 -9 c-2 -5 24 -32 57 -60 33 -27 66
-57 74 -66 16 -20 31 -22 31 -4 0 19 -37 50 -49 42 l-11 -6 5 13 4 13 -59 43
c-63 46 -66 47 -75 32z" />
    <path d="M401 1234 c-6 -14 -9 -29 -6 -34 3 -5 1 -10 -5 -12 -5 -1 -11 -14
-12 -28 -2 -14 -7 -28 -12 -31 -5 -4 -9 -21 -10 -38 0 -17 -5 -31 -10 -31 -4
0 -6 -9 -3 -20 3 -11 1 -23 -4 -26 -6 -3 -7 -15 -3 -26 l6 -20 -11 -8 -12 -7
7 -57 c9 -72 15 -65 21 21 2 37 13 99 24 138 41 140 47 160 54 176 11 28 -11
30 -24 3z" />
    <path d="M2104 1215 c-3 -8 6 -36 20 -62 14 -26 52 -106 85 -176 l60 -129 12
8 12 7 -7 -12 c-9 -13 12 -83 27 -93 13 -8 27 -1 27 13 0 6 -4 8 -9 5 -5 -3
-12 1 -15 10 l-6 15 10 -6 10 -6 -6 15 c-3 9 -10 13 -16 10 -5 -3 -8 0 -7 7 2
8 -1 24 -5 37 l-7 22 -11 -6 -11 -7 6 16 6 17 -10 0 c-6 0 -8 4 -4 9 3 5 0 21
-6 35 l-12 25 -10 -6 -10 -6 6 17 7 17 -12 -7 -11 -7 6 16 6 16 -15 16 c-9 8
-13 15 -9 15 3 0 -6 23 -21 50 -15 28 -31 50 -36 50 -5 0 -7 4 -3 9 3 6 -1 15
-8 22 l-13 13 4 23 4 23 -11 0 c-6 0 -14 -7 -17 -15z" />
    <path d="M1785 883 c28 -26 43 -43 35 -39 -8 4 -6 0 5 -9 11 -9 20 -20 20 -25
0 -5 6 -15 13 -21 l12 -13 0 20 c0 41 -80 133 -115 134 l-20 0 50 -47z" />
    <path d="M330 761 c0 -5 -2 -16 -5 -24 l-6 -14 16 0 15 0 0 18 c0 10 -4 21
-10 24 -5 3 -10 2 -10 -4z" />
    <path d="M1886 761 c-3 -5 1 -12 10 -15 8 -3 13 -10 9 -15 -3 -6 4 -15 15 -21
l20 -11 0 11 c0 31 -42 71 -54 51z" />
    <path d="M336 674 c-8 -21 -8 -21 9 -21 8 0 15 6 15 13 0 20 -17 26 -24 8z" />
  </g>
  <g transform="translate(0.000000,245.000000) scale(0.100000,-0.100000)" fill="#55a0ae" stroke="none" />
  <g transform="translate(0.000000,245.000000) scale(0.100000,-0.100000)" fill="#1097a2" stroke="none">
    <path d="M2245 901 l26 -52 9 6 c6 3 10 8 10 11 0 3 -4 3 -9 0 -4 -3 -16 13
-26 35 -10 22 -22 42 -27 45 -5 4 2 -17 17 -45z" />
    <path d="M1746 919 c2 -5 12 -5 21 -2 l16 6 -6 -9 -6 -10 21 -1 21 -2 -19 13
c-21 14 -56 18 -48 5z" />
    <path d="M1806 875 c-3 -8 -1 -14 4 -12 5 1 20 -13 34 -32 34 -46 34 -28 0 21
-30 43 -30 43 -38 23z" />
    <path d="M336 773 c3 -44 9 -94 14 -110 l9 -28 -5 45 c-3 25 -9 74 -14 110
l-9 65 5 -82z" />
    <path d="M2286 842 c-4 -7 -1 -43 4 -49 2 -2 3 -7 4 -11 0 -5 10 -17 20 -28
11 -10 17 -14 15 -9 -31 64 -39 87 -34 95 4 6 4 10 1 10 -3 0 -7 -4 -10 -8z" />
    <path d="M492 803 c-19 -51 -23 -67 -16 -60 9 9 34 80 30 84 -2 2 -8 -9 -14
-24z" />
    <path d="M2836 740 c4 -25 10 -52 14 -59 l8 -15 -5 50 c-3 27 -10 54 -15 59
l-9 10 7 -45z" />
    <path d="M1915 735 c13 -21 22 -41 19 -46 l-5 -9 17 7 17 6 -5 -15 -6 -15 13
0 14 0 -9 18 c-6 9 -13 19 -17 21 -5 1 -16 16 -25 33 -9 16 -21 31 -28 33 -6
2 1 -13 15 -33z" />
    <path d="M2853 615 c0 -27 2 -38 4 -22 2 15 2 37 0 50 -2 12 -4 0 -4 -28z" />
  </g>
  <g transform="translate(0.000000,245.000000) scale(0.100000,-0.100000)" fill="#9adde2" stroke="none">
    <path d="M965 1336 c-27 -14 -47 -25 -44 -25 9 -1 99 39 99 44 0 7 -1 7 -55
-19z" />
  </g>
  <g transform="translate(0.000000,245.000000) scale(0.100000,-0.100000)" fill="#77bfc5" stroke="none">
    <path d="M660 1615 c-24 -25 -42 -45 -39 -45 3 0 25 20 49 45 24 25 42 45 39
45 -3 0 -25 -20 -49 -45z" />
  </g>
  <g transform="translate(0.000000,245.000000) scale(0.100000,-0.100000)" fill="#48a494" stroke="none">
    <path d="M1208 1873 c12 -2 32 -2 45 0 12 2 2 4 -23 4 -25 0 -35 -2 -22 -4z" />
    <path d="M1108 1373 c17 -2 47 -2 65 0 17 2 3 4 -33 4 -36 0 -50 -2 -32 -4z" />
  </g>
</svg>