<?xml version="1.0" standalone="no"?>
<!DOCTYPE svg PUBLIC "-//W3C//DTD SVG 20010904//EN"
 "http://www.w3.org/TR/2001/REC-SVG-20010904/DTD/svg10.dtd">
<svg version="1.0" xmlns="http://www.w3.org/2000/svg"
 width="311.000000pt" height="245.000000pt" viewBox="0 0 311.000000 245.000000"
 preserveAspectRatio="xMidYMid meet">

<g transform="translate(0.000000,245.000000) scale(0.100000,-0.100000)"
fill="#000000" stroke="none">
<path d="M2039 1967 c-51 -27 -113 -102 -106 -129 3 -10 1 -21 -5 -24 -26 -16
16 -147 59 -186 40 -36 114 -61 165 -55 210 25 265 295 79 390 -69 34 -131 36
-192 4z"/>
<path d="M533 1445 c0 -8 4 -12 9 -9 5 3 6 10 3 15 -9 13 -12 11 -12 -6z"/>
<path d="M499 1403 c-13 -16 -12 -17 4 -4 9 7 17 15 17 17 0 8 -8 3 -21 -13z"/>
<path d="M1276 1358 c3 -5 10 -6 15 -3 13 9 11 12 -6 12 -8 0 -12 -4 -9 -9z"/>
<path d="M2038 1363 c-20 -5 -23 -18 -8 -28 6 -4 8 -11 5 -16 -6 -8 8 -13 27
-10 4 0 5 -5 2 -13 -3 -7 1 -20 8 -27 16 -16 32 -50 29 -62 0 -4 11 -1 26 7
16 7 61 22 101 31 82 20 144 13 224 -25 100 -46 195 -174 224 -299 22 -95 16
-289 -11 -355 -6 -15 -5 -17 5 -11 9 5 11 4 6 -4 -4 -6 -11 -9 -15 -6 -9 5
-44 -29 -36 -36 9 -10 -80 -14 -161 -7 -32 2 -40 6 -36 18 5 13 4 13 -14 0
-18 -14 -18 -14 -4 4 14 18 13 19 -3 13 -11 -4 -16 -3 -12 4 4 5 16 7 28 4 19
-5 20 -4 7 7 -8 7 -16 20 -18 28 -2 8 -10 21 -19 28 -9 6 -14 12 -10 12 4 0 2
10 -5 23 -7 12 -13 24 -13 27 -5 26 -19 50 -31 50 -8 0 -14 5 -14 11 0 5 4 7
10 4 6 -3 7 1 4 9 -3 9 -10 16 -16 16 -5 0 -7 4 -4 8 3 5 -2 19 -10 31 -15 20
-17 21 -33 7 -10 -9 -21 -13 -26 -9 -4 5 -5 2 -1 -5 6 -10 11 -10 21 -2 9 8
15 8 20 0 3 -5 0 -10 -7 -10 -7 0 -2 -7 10 -16 12 -8 22 -24 22 -35 0 -10 6
-19 13 -19 8 0 14 -7 14 -15 0 -18 -14 -20 -19 -4 -3 9 -9 9 -25 1 -16 -9 -23
-9 -26 1 -3 7 -6 5 -6 -5 -1 -19 -16 -24 -26 -9 -3 5 2 16 10 24 8 9 15 17 15
19 0 2 -40 2 -90 0 -69 -3 -90 -7 -90 -17 0 -20 -56 -8 -92 19 -30 21 -38 42
-12 32 9 -3 12 -2 9 5 -4 5 -12 8 -18 6 -7 -2 -20 0 -31 5 -13 7 -16 7 -12 -1
5 -7 -1 -11 -15 -11 -22 0 -22 0 -3 23 l19 22 -21 -18 c-17 -14 -23 -15 -27
-5 -2 7 -7 10 -11 7 -4 -4 1 -15 11 -25 10 -9 19 -21 19 -26 1 -4 2 -11 3 -14
0 -4 7 -1 15 5 10 8 16 9 21 1 3 -5 1 -10 -5 -10 -7 0 -8 -5 -3 -12 4 -7 8
-16 8 -20 0 -3 12 -20 27 -36 14 -17 24 -33 21 -36 -4 -3 -3 -6 0 -6 3 0 11 8
16 19 8 15 7 18 -7 17 -10 -1 -17 6 -17 19 0 14 -6 19 -20 17 -11 -2 -17 -1
-13 3 7 7 58 15 58 8 0 -2 -5 -14 -11 -26 -10 -21 -10 -21 5 -3 15 19 48 32
43 18 -5 -16 14 -14 70 8 21 9 20 7 -6 -32 -16 -23 -27 -51 -25 -65 1 -14 0
-22 -3 -19 -4 3 -12 1 -18 -4 -9 -8 -14 -6 -19 6 -4 10 -2 14 6 12 12 -4 42
61 33 71 -3 2 -5 -1 -5 -7 0 -6 -7 -18 -16 -27 -12 -11 -20 -13 -29 -5 -10 8
-15 8 -21 -1 -4 -7 -3 -14 4 -17 6 -2 8 -10 5 -18 -3 -8 -1 -14 5 -14 6 0 23
-20 39 -45 15 -25 33 -43 40 -41 7 3 10 0 8 -7 -3 -7 13 -30 35 -51 22 -22 40
-43 40 -48 0 -5 5 -6 10 -3 6 4 8 11 5 16 -3 5 1 6 10 2 13 -4 14 -8 4 -14
-10 -6 -10 -11 0 -23 7 -9 17 -13 22 -10 5 3 8 0 7 -7 -4 -17 91 -81 109 -75
8 3 12 2 9 -3 -9 -13 13 -27 76 -46 65 -20 178 -17 220 6 12 7 25 13 28 12 12
-3 85 55 82 66 -1 7 2 10 7 6 11 -6 34 29 24 39 -3 3 -2 6 4 6 14 0 21 18 43
105 16 65 19 183 7 270 -2 17 -5 37 -6 45 -1 13 -2 13 -11 0 -5 -8 -12 -12
-15 -8 -4 3 0 12 8 19 18 17 9 63 -31 156 -53 123 -169 280 -198 269 -8 -3
-13 0 -11 6 3 16 -95 79 -113 73 -8 -4 -11 -3 -7 1 12 13 -72 45 -167 65 -83
17 -216 23 -258 12z m-73 -628 c27 -28 34 -45 10 -25 -10 9 -15 9 -15 1 0 -6
-5 -11 -11 -11 -6 0 -8 9 -4 20 4 11 2 20 -4 20 -6 0 -11 5 -11 10 0 15 7 12
35 -15z m850 -5 c-4 -13 -2 -20 5 -18 7 2 15 -3 18 -11 2 -8 0 -11 -6 -7 -6 3
-13 0 -15 -6 -3 -8 -6 -6 -6 5 -1 23 -18 22 -31 -2 -15 -28 -13 -34 10 -28 11
3 20 2 20 -3 0 -4 -17 -11 -37 -15 -27 -5 -33 -9 -22 -15 8 -6 15 -6 17 0 5
13 39 13 47 0 4 -6 -4 -9 -17 -7 -23 2 -25 -2 -13 -38 3 -11 -1 -8 -10 8 -8
15 -21 27 -28 26 -9 0 -9 -2 1 -6 6 -2 12 -9 12 -14 0 -6 -4 -7 -10 -4 -5 3
-10 1 -10 -4 0 -6 5 -11 10 -11 6 0 5 -8 -2 -20 -12 -19 -14 -19 -27 -3 -12
17 -13 16 -6 -4 5 -18 3 -22 -9 -17 -12 5 -15 2 -10 -12 5 -16 4 -16 -5 -4 -7
11 -6 21 4 37 8 12 11 24 6 28 -5 3 -12 -1 -14 -7 -3 -8 -6 -8 -6 -2 -1 6 8
19 19 29 11 10 20 15 20 11 0 -4 5 -4 10 -1 8 5 7 11 -1 21 -11 14 -2 20 25
15 5 -1 6 6 4 16 -3 10 0 24 6 30 6 6 19 20 28 32 22 27 31 27 23 1z m-630
-30 c4 -6 10 -8 15 -5 5 3 11 1 14 -4 4 -5 -2 -8 -11 -6 -10 2 -24 4 -30 4
-15 1 -18 21 -4 21 6 0 13 -5 16 -10z m167 -37 c-5 -10 -7 -23 -5 -30 8 -23
-15 -22 -43 2 -26 22 -27 25 -9 27 40 3 44 3 51 11 13 12 15 8 6 -10z m-197
-3 c-3 -5 -10 -10 -16 -10 -5 0 -9 5 -9 10 0 6 7 10 16 10 8 0 12 -4 9 -10z
m685 -1 c0 8 2 12 4 10 3 -2 1 -20 -4 -39 -5 -22 -8 -27 -9 -13 -1 12 -4 30
-7 40 -5 15 -4 15 5 3 9 -12 11 -13 11 -1z m-473 -29 c-3 -11 -1 -20 4 -20 5
0 9 -5 9 -11 0 -5 -4 -8 -9 -4 -5 3 -12 -3 -14 -12 -3 -10 -4 1 -4 24 1 24 6
43 11 43 4 0 6 -9 3 -20z m-258 -21 c-16 -10 -23 -4 -14 10 3 6 11 8 17 5 6
-4 5 -9 -3 -15z m212 -32 c0 -21 1 -21 9 -2 8 19 9 19 9 -4 1 -17 -3 -22 -15
-17 -9 3 -18 6 -20 6 -2 0 -4 12 -4 26 0 31 20 22 21 -9z m-174 17 c-3 -3 -12
-4 -19 -1 -8 3 -5 6 6 6 11 1 17 -2 13 -5z m100 -16 c-3 -8 -6 -5 -6 6 -1 11
2 17 5 13 3 -3 4 -12 1 -19z m153 -14 c0 -2 -7 -4 -15 -4 -8 0 -15 4 -15 10 0
5 7 7 15 4 8 -4 15 -8 15 -10z m427 -6 c-3 -8 -6 -5 -6 6 -1 11 2 17 5 13 3
-3 4 -12 1 -19z m-747 -18 c0 -5 -7 -7 -15 -4 -8 4 -12 10 -9 15 6 11 24 2 24
-11z m703 6 c4 -10 1 -13 -9 -9 -7 3 -14 9 -14 14 0 14 17 10 23 -5z m-686
-31 c0 -8 -4 -12 -9 -9 -5 3 -6 10 -3 15 9 13 12 11 12 -6z m59 -40 c2 -12 -2
-13 -18 -4 -16 9 -18 13 -7 20 15 9 22 5 25 -16z m319 15 c4 -6 1 -9 -7 -8 -7
2 -12 -2 -11 -9 2 -7 -4 -10 -12 -7 -8 4 -15 10 -15 16 0 5 4 7 9 3 5 -3 12
-1 16 5 8 13 12 13 20 0z m175 -5 c0 -8 -4 -15 -10 -15 -5 0 -7 7 -4 15 4 8 8
15 10 15 2 0 4 -7 4 -15z m-33 -17 c-3 -8 -6 -5 -6 6 -1 11 2 17 5 13 3 -3 4
-12 1 -19z m50 -10 c-3 -8 -6 -5 -6 6 -1 11 2 17 5 13 3 -3 4 -12 1 -19z
m-490 -23 c12 -12 18 -13 29 -4 11 9 14 9 14 0 0 -7 4 -10 8 -7 4 2 8 -4 8
-14 0 -10 -6 -16 -13 -13 -7 3 -10 10 -6 16 4 6 0 8 -10 4 -9 -3 -26 2 -39 13
-13 11 -19 19 -15 20 5 0 15 -7 24 -15z m596 -62 c-7 -2 -19 -2 -25 0 -7 3 -2
5 12 5 14 0 19 -2 13 -5z m-516 -9 c-3 -3 -12 -4 -19 -1 -8 3 -5 6 6 6 11 1
17 -2 13 -5z"/>
<path d="M2705 600 c-3 -4 4 -15 14 -24 18 -16 19 -16 17 7 -1 22 -21 33 -31
17z"/>
<path d="M2320 641 c0 -6 4 -13 10 -16 6 -3 7 1 4 9 -7 18 -14 21 -14 7z"/>
<path d="M1436 1278 c3 -5 10 -6 15 -3 13 9 11 12 -6 12 -8 0 -12 -4 -9 -9z"/>
<path d="M1465 1251 c-3 -5 -2 -12 3 -15 5 -3 9 1 9 9 0 17 -3 19 -12 6z"/>
<path d="M799 1233 c-13 -16 -12 -17 4 -4 9 7 17 15 17 17 0 8 -8 3 -21 -13z"/>
<path d="M1500 1206 c0 -2 8 -10 18 -17 15 -13 16 -12 3 4 -13 16 -21 21 -21
13z"/>
<path d="M387 1181 c-4 -17 -3 -21 5 -13 5 5 8 16 6 23 -3 8 -7 3 -11 -10z"/>
<path d="M1514 1147 c-98 -70 -200 -147 -328 -250 -55 -44 -136 -107 -180
-140 -45 -33 -80 -64 -78 -69 1 -5 -2 -7 -8 -3 -11 7 -52 -18 -45 -28 3 -4 2
-5 -1 -3 -3 2 -44 -14 -91 -37 -71 -34 -98 -41 -161 -45 -72 -4 -79 -2 -105
21 l-27 26 0 -47 c0 -39 -3 -48 -18 -48 -11 0 -19 8 -20 21 -1 16 1 17 8 5 11
-18 11 -21 16 60 4 70 21 154 36 183 6 12 4 22 -6 32 -12 13 -15 13 -20 0 -3
-8 -3 -23 -1 -34 2 -11 0 -23 -6 -26 -5 -4 -9 -11 -9 -16 0 -6 5 -7 12 -3 6 4
8 3 5 -4 -4 -5 -16 -8 -27 -5 -23 6 -28 -21 -9 -47 8 -11 9 -8 4 15 -4 16 -3
27 1 22 11 -11 14 -117 4 -117 -5 0 -7 6 -4 14 6 17 -27 31 -36 15 -6 -8 -9
-7 -13 2 -3 11 -7 11 -17 2 -15 -14 -5 -46 13 -40 6 2 18 -3 25 -12 11 -14 12
-13 3 6 -14 27 -14 33 -1 33 6 0 10 -9 10 -21 0 -12 4 -17 11 -13 7 4 6 -3 -2
-17 -7 -13 -12 -28 -11 -33 2 -5 -5 -3 -14 5 -16 12 -17 12 -11 -3 3 -10 1
-20 -6 -24 -7 -4 -9 -4 -5 1 4 4 2 13 -5 19 -7 6 -10 10 -8 9 7 -4 31 18 31
28 0 11 -27 12 -33 2 -2 -5 -2 -3 -1 4 5 22 -14 23 -19 1 -6 -23 47 -138 92
-198 113 -153 314 -242 451 -200 19 6 46 13 59 16 41 8 112 44 186 93 65 42
302 268 292 277 -2 3 10 20 27 38 17 18 49 54 71 81 22 27 45 53 50 59 41 44
64 79 59 88 -4 6 -3 8 3 5 5 -3 27 11 48 33 32 33 36 42 25 54 -7 9 -10 23 -6
31 3 10 2 13 -5 10 -15 -10 -49 24 -42 43 4 10 2 13 -5 8 -11 -7 -67 42 -58
51 3 3 -12 21 -34 41 -22 19 -37 38 -34 43 8 13 3 11 -32 -14z m-1104 -528 c0
-6 -4 -7 -10 -4 -5 3 -10 11 -10 16 0 6 5 7 10 4 6 -3 10 -11 10 -16z m30 -99
c0 -5 -5 -10 -11 -10 -5 0 -7 5 -4 10 3 6 8 10 11 10 2 0 4 -4 4 -10z m30 -19
c0 -15 -41 -24 -52 -13 -8 8 -4 9 11 5 12 -3 21 -1 21 6 0 6 5 11 10 11 6 0
10 -4 10 -9z m0 -51 c0 -11 -4 -20 -9 -20 -5 0 -7 9 -4 20 3 11 7 20 9 20 2 0
4 -9 4 -20z m40 -2 c0 -5 -4 -7 -9 -4 -5 4 -11 0 -14 -6 -3 -7 -4 -3 -4 8 1
21 27 23 27 2z m-30 -34 c0 -8 -19 -13 -24 -6 -3 5 1 9 9 9 8 0 15 -2 15 -3z
m49 -22 c0 -11 -2 -12 -6 -4 -2 6 -9 10 -14 7 -5 -4 -6 1 -3 9 8 20 24 11 23
-12z m-42 -14 c-3 -8 -6 -5 -6 6 -1 11 2 17 5 13 3 -3 4 -12 1 -19z m33 -12
c0 -2 -7 -7 -16 -10 -8 -3 -12 -2 -9 4 6 10 25 14 25 6z m49 -42 c4 3 8 -1 8
-9 0 -11 -4 -12 -14 -4 -7 6 -13 17 -12 23 0 7 2 6 6 -2 2 -6 8 -10 12 -8z"/>
<path d="M675 1151 c-3 -5 -2 -12 3 -15 5 -3 9 1 9 9 0 17 -3 19 -12 6z"/>
<path d="M706 1148 c3 -5 10 -6 15 -3 13 9 11 12 -6 12 -8 0 -12 -4 -9 -9z"/>
<path d="M647 1079 c-8 -11 -17 -17 -19 -12 -3 4 -3 2 -2 -4 2 -7 -2 -13 -8
-13 -6 0 -8 -3 -5 -6 8 -8 35 13 48 38 13 25 4 23 -14 -3z"/>
<path d="M356 1057 c3 -10 9 -15 12 -12 3 3 0 11 -7 18 -10 9 -11 8 -5 -6z"/>
<path d="M2166 1034 c-5 -14 -4 -15 9 -4 17 14 19 20 6 20 -5 0 -12 -7 -15
-16z"/>
<path d="M345 1019 c-4 -6 -5 -12 -2 -15 2 -3 7 2 10 11 7 17 1 20 -8 4z"/>
<path d="M600 1000 c-6 -11 -8 -20 -6 -20 3 0 10 9 16 20 6 11 8 20 6 20 -3 0
-10 -9 -16 -20z"/>
<path d="M337 963 c-4 -3 -7 -13 -7 -22 1 -13 3 -13 11 2 11 19 8 33 -4 20z"/>
<path d="M565 960 c-3 -5 -2 -10 4 -10 5 0 13 5 16 10 3 6 2 10 -4 10 -5 0
-13 -4 -16 -10z"/>
<path d="M2215 949 c-4 -6 -5 -12 -2 -15 2 -3 7 2 10 11 7 17 1 20 -8 4z"/>
<path d="M560 932 c0 -7 -6 -12 -14 -12 -8 0 -17 -4 -20 -9 -4 -5 3 -7 14 -4
22 6 35 21 26 30 -3 4 -6 1 -6 -5z"/>
<path d="M1756 931 c-3 -4 3 -16 13 -25 12 -11 21 -13 25 -7 4 5 -3 12 -14 16
-11 4 -18 11 -15 16 4 5 4 9 1 9 -3 0 -7 -4 -10 -9z"/>
<path d="M2232 923 c-10 -4 -9 -10 4 -25 16 -16 16 -21 4 -28 -8 -6 -10 -10
-5 -10 20 0 38 17 26 24 -6 4 -8 12 -5 18 5 7 2 8 -6 3 -10 -6 -12 -4 -7 8 3
10 5 17 4 16 -1 0 -8 -3 -15 -6z"/>
<path d="M326 883 c-8 -54 -7 -131 2 -137 5 -3 7 -19 4 -36 -2 -16 0 -30 5
-30 6 0 8 -11 6 -24 -3 -13 0 -27 6 -30 5 -4 8 -14 5 -24 -5 -15 -5 -15 6 1 6
9 9 21 5 26 -3 5 -1 12 5 16 5 3 10 11 10 16 0 6 -4 7 -10 4 -17 -11 -11 0 12
19 18 15 20 16 15 2 -4 -10 -1 -16 7 -16 9 0 12 8 8 25 -5 28 -12 31 -30 13
-9 -9 -12 -8 -13 7 0 20 -1 20 -10 0 -7 -16 -8 -12 -6 16 2 29 0 36 -12 31 -9
-3 -12 -1 -8 6 11 17 15 72 6 77 -4 3 -5 21 -2 40 3 19 3 35 1 35 -3 0 -8 -17
-12 -37z"/>
<path d="M534 886 c-3 -9 -10 -13 -15 -10 -5 3 -9 0 -9 -5 0 -6 6 -11 13 -11
9 0 8 -3 -2 -9 -9 -6 -10 -11 -2 -15 6 -4 12 -2 12 3 3 21 4 26 13 39 4 7 5
16 2 19 -3 3 -8 -2 -12 -11z"/>
<path d="M1800 870 c0 -19 3 -21 12 -12 9 9 9 15 0 24 -9 9 -12 7 -12 -12z"/>
<path d="M1829 854 c-11 -14 -11 -18 -1 -21 6 -3 10 -8 7 -13 -3 -4 1 -10 9
-13 10 -4 12 0 9 14 -3 10 -10 19 -17 19 -6 0 -4 4 4 10 8 5 12 12 9 15 -4 3
-12 -2 -20 -11z"/>
<path d="M2260 830 c0 -5 7 -7 15 -4 8 4 15 8 15 10 0 2 -7 4 -15 4 -8 0 -15
-4 -15 -10z"/>
<path d="M1873 814 c0 -8 4 -14 9 -14 4 0 8 5 8 11 0 5 6 7 13 3 6 -4 8 -3 4
1 -13 15 -34 14 -34 -1z"/>
<path d="M431 784 c0 -11 3 -14 6 -6 3 7 2 16 -1 19 -3 4 -6 -2 -5 -13z"/>
<path d="M446 765 c-11 -8 -15 -15 -9 -15 6 0 16 7 23 15 16 19 11 19 -14 0z"/>
<path d="M2073 763 c-28 -11 -10 -18 37 -15 27 2 50 8 50 13 0 9 -66 11 -87 2z"/>
<path d="M408 745 c5 -11 12 -27 15 -35 5 -13 6 -13 6 1 1 8 -6 24 -15 35 -15
19 -15 19 -6 -1z"/>
<path d="M2276 734 c-7 -19 0 -34 17 -34 9 0 8 3 -1 8 -7 5 -10 16 -6 25 3 9
4 17 1 17 -3 0 -8 -7 -11 -16z"/>
<path d="M2035 720 c-3 -5 1 -10 9 -10 9 0 16 5 16 10 0 6 -4 10 -9 10 -6 0
-13 -4 -16 -10z"/>
<path d="M430 676 c0 -8 5 -18 10 -21 6 -3 10 1 10 9 0 8 -4 18 -10 21 -5 3
-10 -1 -10 -9z"/>
<path d="M2011 675 c0 -5 6 -21 14 -35 8 -14 14 -20 14 -15 0 6 -6 21 -14 35
-8 14 -14 21 -14 15z"/>
<path d="M2440 519 c0 -5 5 -7 10 -4 6 3 10 8 10 11 0 2 -4 4 -10 4 -5 0 -10
-5 -10 -11z"/>
</g>
</svg>
